<svg width="32" height="32" fill="none" xmlns="http://www.w3.org/2000/svg"><path fill="#EBF6F2" d="M0 0h32v32H0z"/><path d="M24.413 10.674c-.18-1.575-.865-4.245-3.437-5.639-3.618-1.966-8.4-.99-11.475 1.732-3.166 2.787-4.549 5.665-5.117 8.765-.44 2.357-.4 4.857-.362 7.488.013.742.026 1.498.026 2.266v.73l.71.13c.556.104 1.254.273 2.055.455 2.003.47 4.652 1.094 7.34 1.316 3.825.312 8.064-.157 11.281-3.1 2.856-2.604 3.528-5.56 2.92-8.23-.555-2.436-2.17-4.558-3.94-5.913ZM6.09 15.857c.504-2.721 1.692-5.248 4.548-7.774 2.636-2.331 6.655-3.048 9.511-1.498 1.28.69 1.938 1.862 2.261 2.97a10.18 10.18 0 0 0-3.825-.717c-2.558 0-5.647.938-8.877 3.816-2.094 1.875-3.23 3.685-3.903 5.404.065-.755.142-1.484.285-2.2Zm.077 8.387c.104-.443.194-.885.272-1.315.038-.208.064-.404.103-.6.116-.729.245-1.445.44-2.2.477-1.875 1.408-3.933 3.889-6.16 2.933-2.617 5.621-3.373 7.74-3.386 1.887 0 3.36.586 4.187 1.094.452 3.594-1.964 6.538-5.699 8.777-3.372 2.02-7.585 3.295-10.932 3.79Zm18.091-.73c-2.688 2.462-6.345 2.944-9.976 2.658-1.744-.144-3.411-.443-4.91-.782 2.869-.703 5.957-1.849 8.593-3.425 3.425-2.044 6.306-4.988 6.59-8.803.983 1.068 1.784 2.396 2.107 3.815.452 2.032.013 4.337-2.404 6.538Z" fill="#454965"/></svg>