<svg width="32" height="32" fill="none" xmlns="http://www.w3.org/2000/svg"><rect width="32" height="32" rx="16" fill="#EBF6F2"/><path d="M24.074 10.41c-.16-1.396-.766-3.76-3.043-4.993-3.204-1.741-7.437-.877-10.16 1.533-2.803 2.468-4.028 5.016-4.531 7.76-.39 2.088-.355 4.302-.32 6.63.011.658.022 1.327.022 2.007v.646l.63.115c.492.092 1.11.242 1.819.404 1.773.415 4.119.968 6.499 1.164 3.386.277 7.14-.138 9.988-2.744 2.529-2.306 3.124-4.924 2.586-7.287-.492-2.157-1.922-4.036-3.49-5.236ZM7.85 14.998c.446-2.41 1.499-4.647 4.028-6.884 2.334-2.064 5.892-2.698 8.42-1.326 1.133.611 1.717 1.649 2.003 2.629a9.014 9.014 0 0 0-3.387-.634c-2.265 0-5 .83-7.86 3.378-1.854 1.66-2.86 3.263-3.456 4.786.058-.67.126-1.315.252-1.95Zm.069 7.425c.091-.392.171-.784.24-1.164.034-.184.057-.358.092-.53.103-.646.217-1.28.389-1.95.423-1.66 1.247-3.481 3.444-5.453 2.597-2.318 4.977-2.987 6.853-2.998 1.67 0 2.975.519 3.707.968.4 3.183-1.739 5.789-5.046 7.772-2.986 1.787-6.716 2.917-9.68 3.355Zm16.018-.645c-2.38 2.18-5.618 2.606-8.833 2.352a31.518 31.518 0 0 1-4.348-.692c2.54-.622 5.275-1.637 7.609-3.032 3.032-1.81 5.584-4.417 5.835-7.795.87.945 1.58 2.122 1.865 3.378.4 1.8.012 3.84-2.128 5.789Z" fill="#454965"/></svg>