<svg width="32" height="32" viewBox="0 0 32 32" fill="none" xmlns="http://www.w3.org/2000/svg">
<rect width="32" height="32" fill="#EBF6F2"/>
<path d="M24.4134 10.6743C24.2324 9.09853 23.5476 6.42882 20.976 5.03537C17.3578 3.06891 12.5766 4.04563 9.5011 6.76742C6.33515 9.55433 4.95248 12.4324 4.3839 15.5319C3.94454 17.889 3.98331 20.3894 4.02208 23.02C4.035 23.7623 4.04792 24.5177 4.04792 25.286V26.0153L4.75865 26.1455C5.3143 26.2497 6.0121 26.419 6.81328 26.6013C8.81622 27.0702 11.4653 27.6953 14.1531 27.9167C17.9781 28.2292 22.2166 27.7604 25.4342 24.8172C28.29 22.2126 28.962 19.2564 28.3546 16.5867C27.799 14.1514 26.1837 12.0287 24.4134 10.6743ZM6.08963 15.8574C6.5936 13.1356 7.78244 10.6092 10.6383 8.08274C13.2744 5.75163 17.2932 5.03537 20.149 6.5851C21.4283 7.27532 22.0873 8.44738 22.4104 9.55433C21.3895 9.15062 20.0844 8.82504 18.5854 8.83807C16.0268 8.83807 12.9384 9.77572 9.70786 12.6538C7.61445 14.5291 6.4773 16.3393 5.80534 18.0583C5.86995 17.303 5.94749 16.5737 6.08963 15.8574ZM6.16716 24.2442C6.27054 23.8014 6.361 23.3586 6.43853 22.9289C6.4773 22.7205 6.50314 22.5252 6.54191 22.3298C6.65821 21.6005 6.78743 20.8843 6.98126 20.1289C7.45939 18.2536 8.38979 16.196 10.8709 13.9691C13.8042 11.3515 16.492 10.5962 18.6113 10.5831C20.4979 10.5831 21.971 11.1692 22.7981 11.6771C23.2504 15.2714 20.8339 18.2146 17.0994 20.4545C13.7267 22.4731 9.51402 23.7493 6.16716 24.2442ZM24.2583 23.5149C21.5705 25.9762 17.9135 26.4581 14.2823 26.1716C12.5378 26.0283 10.8709 25.7288 9.37188 25.3902C12.2406 24.687 15.329 23.541 17.9652 21.9652C21.3895 19.9206 24.2712 16.9774 24.5555 13.1617C25.5376 14.2296 26.3388 15.5579 26.6618 16.9774C27.1141 19.009 26.6747 21.314 24.2583 23.5149Z" fill="#454965"/>
</svg>
