<svg width="32" height="32" viewBox="0 0 32 32" fill="none" xmlns="http://www.w3.org/2000/svg">
<rect width="32" height="32" rx="16" fill="#EBF6F2"/>
<path d="M24.0743 10.4095C23.9141 9.01432 23.3077 6.65052 21.0309 5.41673C17.8272 3.6756 13.5939 4.5404 10.8708 6.95032C8.06758 9.41789 6.84334 11.9662 6.33991 14.7105C5.9509 16.7976 5.98522 19.0115 6.01955 21.3407C6.03099 21.9979 6.04243 22.6667 6.04243 23.347V23.9927L6.67172 24.108C7.1637 24.2003 7.78154 24.3502 8.49092 24.5116C10.2644 24.9267 12.6099 25.4802 14.9897 25.6762C18.3764 25.9529 22.1293 25.5378 24.9782 22.9319C27.5068 20.6258 28.1018 18.0083 27.564 15.6445C27.072 13.4882 25.6418 11.6087 24.0743 10.4095ZM7.85019 14.9988C8.29641 12.5888 9.34904 10.3519 11.8776 8.11492C14.2117 6.05092 17.77 5.41673 20.2986 6.78889C21.4313 7.40002 22.0148 8.43778 22.3009 9.41789C21.397 9.06044 20.2414 8.77217 18.9142 8.7837C16.6488 8.7837 13.9142 9.61392 11.0538 12.1622C9.2003 13.8226 8.19344 15.4254 7.59848 16.9475C7.65569 16.2787 7.72434 15.633 7.85019 14.9988ZM7.91884 22.4245C8.01038 22.0325 8.09047 21.6405 8.15912 21.2599C8.19344 21.0755 8.21632 20.9025 8.25065 20.7295C8.35362 20.0838 8.46804 19.4496 8.63966 18.7808C9.063 17.1204 9.88679 15.2986 12.0836 13.3268C14.6808 11.0091 17.0607 10.3404 18.9371 10.3288C20.6075 10.3288 21.9119 10.8477 22.6441 11.2974C23.0446 14.4799 20.905 17.0858 17.5984 19.0691C14.6122 20.8564 10.8822 21.9864 7.91884 22.4245ZM23.937 21.7788C21.5572 23.9581 18.3192 24.3848 15.1041 24.1311C13.5595 24.0043 12.0836 23.739 10.7564 23.4392C13.2964 22.8166 16.0309 21.8019 18.365 20.4067C21.397 18.5963 23.9485 15.9904 24.2002 12.6119C25.0697 13.5574 25.7791 14.7336 26.0652 15.9904C26.4656 17.7892 26.0766 19.8301 23.937 21.7788Z" fill="#454965"/>
</svg>
