<svg width="32" height="32" viewBox="0 0 32 32" fill="none" xmlns="http://www.w3.org/2000/svg">
<path d="M10.4471 2.5C3.07742 2.5 2.5 3.07674 2.5 10.4471V21.5529C2.5 28.9226 3.07742 29.5 10.4471 29.5H21.5529C28.9226 29.5 29.5 28.9233 29.5 21.5529V10.4471C29.5 3.07674 28.9233 2.5 21.5529 2.5H10.4471ZM8.68838 5.2H23.3116C26.5469 5.2 26.8 5.4531 26.8 8.68838V23.3116C26.8 26.5469 26.5462 26.8 23.3116 26.8H20.4666V18.7264H23.6636L24.1672 15.1338H20.4666C20.4666 15.1338 20.4612 13.0295 20.4666 12.505C20.4774 11.4784 21.3353 10.9591 22.0724 10.9665C22.8095 10.9746 24.336 10.9691 24.336 10.9691V7.65742C24.336 7.65742 23.0145 7.48571 21.6281 7.47153C20.463 7.45938 19.1765 7.77528 18.1384 8.82153C17.082 9.88533 16.9154 11.4702 16.8952 13.4068C16.8891 13.9664 16.8952 15.1325 16.8952 15.1325H13.7667V18.725H16.8952V26.8H8.68838C5.4531 26.8 5.2 26.5462 5.2 23.3116V8.68838C5.2 5.4531 5.4531 5.2 8.68838 5.2Z" fill="#454965"/>
</svg>
