<svg xmlns="http://www.w3.org/2000/svg">
  <style>:root svg:not(:target){display:none}</style>

  <svg viewBox="0 0 28 12" id="icon" fill="none" xmlns="http://www.w3.org/2000/svg">
    <path style="fill: var(--feature-indicator-border-color)" fill-rule="evenodd" clip-rule="evenodd" d="M5.7931 0C5.03234 -1.17411e-08 4.27903 0.155195 3.57618 0.456723C2.87333 0.758251 2.2347 1.20021 1.69676 1.75736C1.15882 2.31451 0.732104 2.97595 0.440974 3.7039C0.149843 4.43185 0 5.21207 0 6C0 6.78793 0.149843 7.56815 0.440974 8.2961C0.732104 9.02405 1.15882 9.68549 1.69676 10.2426C2.2347 10.7998 2.87333 11.2417 3.57618 11.5433C4.27903 11.8448 5.03234 12 5.7931 12H22.2069C23.7433 12 25.2168 11.3679 26.3032 10.2426C27.3897 9.11742 28 7.5913 28 6C28 4.4087 27.3897 2.88258 26.3032 1.75736C25.2168 0.632141 23.7433 2.37122e-08 22.2069 0H5.7931ZM5.7931 1C4.51275 1 3.28483 1.52678 2.37948 2.46447C1.47414 3.40215 0.965517 4.67392 0.965517 6C0.965517 7.32608 1.47414 8.59785 2.37948 9.53553C3.28483 10.4732 4.51275 11 5.7931 11H22.2069C23.4873 11 24.7152 10.4732 25.6205 9.53553C26.5259 8.59785 27.0345 7.32608 27.0345 6C27.0345 4.67392 26.5259 3.40215 25.6205 2.46447C24.7152 1.52678 23.4873 1 22.2069 1H5.7931Z"/>
    <path style="fill: var(--feature-indicator-part-1-color)" d="M3 6C3 5.20435 3.31607 4.44129 3.87868 3.87868C4.44129 3.31607 5.20435 3 6 3H8.94C8.95591 3 8.97117 3.00632 8.98243 3.01757C8.99368 3.02883 9 3.04409 9 3.06V8.94C9 8.94788 8.99845 8.95568 8.99543 8.96296C8.99242 8.97024 8.988 8.97686 8.98243 8.98243C8.97686 8.988 8.97024 8.99242 8.96296 8.99543C8.95568 8.99845 8.94788 9 8.94 9H6C5.20435 9 4.44129 8.68393 3.87868 8.12132C3.31607 7.55871 3 6.79565 3 6Z"/>
    <path style="fill: var(--feature-indicator-part-2-color)" d="M16 3H12C11.4477 3 11 3.44772 11 4V8C11 8.55228 11.4477 9 12 9H16C16.5523 9 17 8.55228 17 8V4C17 3.44772 16.5523 3 16 3Z"/>
    <path style="fill: var(--feature-indicator-part-3-color)" d="M25 6C25 6.79565 24.6839 7.55871 24.1213 8.12132C23.5587 8.68393 22.7956 9 22 9L19.06 9C19.0441 9 19.0288 8.99368 19.0176 8.98243C19.0063 8.97117 19 8.95591 19 8.94V3.06C19 3.05212 19.0016 3.04432 19.0046 3.03704C19.0076 3.02976 19.012 3.02314 19.0176 3.01757C19.0231 3.012 19.0298 3.00758 19.037 3.00457C19.0443 3.00155 19.0521 3 19.06 3H22C22.7956 3 23.5587 3.31607 24.1213 3.87868C24.6839 4.44129 25 5.20435 25 6Z"/>
  </svg>
</svg>
