<svg xmlns="http://www.w3.org/2000/svg">
  <style>:root svg:not(:target){display:none}</style>

  <svg viewBox="0 0 174 46" id="logo" style="fill: var(--logo-color, #454965)" xmlns="http://www.w3.org/2000/svg">
    <path d="M134.866 35.6235V19.6624C134.866 13.4875 132.608 9.82219 127.377 9.82219C124.08 9.82219 121.841 11.5555 119.888 13.3972L121.895 4.47776L119.888 0L113.689 0.0180555V23.3999C113.402 24.718 113.008 25.9638 112.399 27.011C111.79 28.0402 110.984 28.8346 109.963 29.3943C109.783 29.4846 109.586 29.5749 109.407 29.6471C109.318 29.6832 109.228 29.7193 109.121 29.7555C108.87 29.8457 108.637 29.918 108.386 29.9721C108.135 30.0263 107.902 30.0985 107.633 30.1346C107.58 30.1527 107.508 30.1527 107.454 30.1707C106.594 30.2791 105.609 30.2971 104.427 30.1527C101.632 29.5207 99.6788 26.7402 99.6788 22.6777C99.6788 18.0916 102.187 15.0583 105.914 15.0583C107.257 15.0583 108.386 15.6361 109.586 16.6833L112.614 12.5305C110.84 10.9958 108.547 9.82219 105.555 9.82219C98.9801 9.82219 93.1754 14.5527 93.1754 22.6777C93.1754 23.093 93.1933 23.5083 93.2291 23.9055L93.1037 24.2305L93.0858 24.2666C92.4408 26.1444 90.6492 28.2027 88.1947 29.3402C86.1523 30.2971 83.7337 30.5499 81.2434 29.5568C79.7026 28.5638 78.6456 26.8666 78.341 24.4833H92.2975C92.4766 23.9055 92.6021 22.7319 92.6021 21.5041C92.6021 14.7694 89.1443 9.82219 82.4617 9.82219C80.4551 9.82219 78.5918 10.4361 77.0152 11.5555L74.5966 10.3458C73.862 10.0389 73.0737 9.82219 71.73 9.82219C69.2218 9.82219 66.624 11.5736 64.8503 14.7694H64.7249L64.2412 10.4361H50.3205C49.3173 10.093 48.0273 9.82219 46.6836 9.82219C41.5238 9.82219 36.9015 12.9277 36.9015 18.6694C36.9015 21.5583 38.4602 23.8694 40.1443 25.0971V25.2777C38.6752 26.3249 37.4211 28.0402 37.4211 29.8638C37.4211 31.868 38.3706 33.1499 39.6248 33.9804V34.1971C37.4211 35.461 36.167 37.2124 36.167 39.2707C36.167 43.604 40.5922 45.5721 46.3074 45.5721C54.4054 45.5721 59.5114 41.8165 59.5114 36.8693C59.5114 36.454 59.4577 36.0568 59.386 35.6957H65.4236V20.3305C66.7673 16.7916 69.0606 15.5097 70.9597 15.5097C71.9629 15.5097 72.6438 15.6361 73.5216 15.9069C72.6438 17.8027 72.1421 20.0777 72.1421 22.6958C72.1421 27.8235 74.2741 31.6152 77.5527 33.7096C77.5706 33.7277 77.5885 33.7277 77.6244 33.7457C79.5055 34.9193 81.7629 35.5693 84.2353 35.5693C84.6116 35.5693 84.9878 35.5513 85.364 35.5152C87.1556 35.3888 88.8576 34.9554 90.4163 34.2332C92.2975 33.3666 93.9816 32.1027 95.3253 30.6221C97.4393 33.836 100.915 35.5874 105 35.5874C105.054 35.5874 105.089 35.5874 105.143 35.5874C107.741 35.7138 110.016 35.3346 111.933 34.4318C112.596 34.1249 113.205 33.7277 113.761 33.3304V35.6957H120.121V18.0194C121.787 16.3583 123.184 15.3291 125.084 15.3291C127.466 15.3291 128.506 16.6472 128.506 20.4569V35.6235H134.866ZM46.6836 14.1916C48.8514 14.1916 50.4997 15.8166 50.4997 18.6513C50.4997 21.5763 48.8156 23.2013 46.6836 23.2013C44.5695 23.2013 42.8675 21.5763 42.8675 18.6513C42.8855 15.8166 44.5337 14.1916 46.6836 14.1916ZM47.2569 41.4915C43.7454 41.4915 41.5059 40.3179 41.5059 38.2596C41.5059 37.2485 41.9897 36.2915 43.0646 35.4068C43.9246 35.6235 44.9637 35.7499 46.4507 35.7499H49.3889C51.9867 35.7499 53.42 36.1832 53.42 37.9346C53.4021 39.8846 50.8939 41.4915 47.2569 41.4915ZM50.4639 30.7305H46.3432C43.4767 30.7305 42.5271 30.0263 42.5271 28.7263C42.5271 27.7152 42.9213 27.1916 43.5663 26.6319C44.6054 26.9749 45.7341 27.2096 46.6836 27.2096C51.8792 27.2096 56.0357 24.411 56.0357 18.9041C56.0357 17.3694 55.552 16.0152 54.9608 15.1847H59.0635V34.5221C58.0065 31.9041 55.0683 30.7305 50.4639 30.7305ZM82.5512 14.8055C85.6686 14.8055 87.1377 16.8999 87.1377 20.186H78.2514C78.7352 16.6472 79.9893 14.8055 82.5512 14.8055Z"/>
    <path d="M168.243 33.3124V35.6596H173.779V15.4375H171.951C171.772 14.8958 171.557 14.3541 171.235 13.8125C169.533 10.8875 166.863 8.68471 161.829 8.57637C153.283 8.37776 147.442 13.1083 143.608 18.0916C143.071 18.7958 142.569 19.518 142.085 20.2402V13.3972L144.092 4.47777L142.067 0.0180664H135.797V35.6235H142.067V31.0555C142.157 30.8749 142.229 30.6944 142.318 30.5138C143.053 28.9069 144.002 26.9388 145.221 24.8985L150.631 35.6416H156.113V33.3666L156.006 33.2041C157.26 34.7207 159.141 35.6777 161.506 35.6777C164.247 35.6777 165.967 35.1541 168.063 33.3305H168.243V33.3124ZM154.394 28.4555C154.394 29.6833 154.662 30.7846 155.128 31.7596L148.123 20.6374C151.366 16.6291 155.684 13.0902 161.703 13.2347C165.591 13.325 166.988 14.9319 167.544 15.8708C168.099 16.8277 168.171 18.0375 168.207 19.4819C158.55 20.5291 154.394 23.2555 154.394 28.4555ZM160.395 27.9319C160.395 25.7652 162.366 24.1222 168.243 23.3819V28.2749C166.702 29.7916 165.376 30.6582 163.567 30.6582C161.721 30.6582 160.395 29.8458 160.395 27.9319Z"/>
    <path d="M28.3019 12.8194C28.051 10.6347 27.1015 6.93334 23.5362 5.0014C18.5198 2.27502 11.8909 3.62918 7.62694 7.40278C3.23755 11.2667 1.32055 15.2569 0.532255 19.5541C-0.0768862 22.8222 -0.0231387 26.2888 0.0306089 29.936C0.0485248 30.9652 0.0664407 32.0124 0.0664407 33.0777V34.0888L1.05182 34.2694C1.82219 34.4138 2.78965 34.6485 3.90043 34.9013C6.6774 35.5513 10.3502 36.418 14.0767 36.7249C19.3797 37.1582 25.2562 36.5082 29.7172 32.4277C33.6766 28.8166 34.6083 24.718 33.7662 21.0166C32.9958 17.6402 30.7563 14.6972 28.3019 12.8194ZM2.89714 20.0055C3.59586 16.2319 5.24413 12.7292 9.20354 9.22638C12.8584 5.99445 18.4302 5.0014 22.3896 7.15C24.1633 8.10694 25.077 9.73194 25.5249 11.2667C24.1095 10.7069 22.3 10.2555 20.2218 10.2736C16.6745 10.2736 12.3926 11.5736 7.91359 15.5639C5.01122 18.1639 3.43462 20.6736 2.50299 23.0569C2.59257 22.0097 2.70007 20.9986 2.89714 20.0055ZM3.00464 31.6333C3.14797 31.0194 3.27338 30.4055 3.38087 29.8097C3.43462 29.5208 3.47045 29.2499 3.5242 28.9791C3.68544 27.968 3.8646 26.9749 4.13334 25.9277C4.79623 23.3277 6.08617 20.475 9.52603 17.3875C13.5929 13.7583 17.3194 12.7111 20.2576 12.693C22.8734 12.693 24.9158 13.5055 26.0624 14.2097C26.6894 19.193 23.3392 23.2736 18.1615 26.3791C13.4854 29.1777 7.64486 30.9472 3.00464 31.6333ZM28.0869 30.6221C24.3604 34.0346 19.2902 34.7027 14.2558 34.3055C11.8372 34.1069 9.52602 33.6916 7.44778 33.2221C11.4251 32.2471 15.707 30.6583 19.3618 28.4735C24.1095 25.6388 28.1048 21.5583 28.4989 16.268C29.8605 17.7486 30.9713 19.5902 31.4192 21.5583C32.0463 24.3749 31.4371 27.5708 28.0869 30.6221Z"/>
  </svg>
</svg>
