<svg width="80" height="80" viewBox="0 0 80 80" fill="none" xmlns="http://www.w3.org/2000/svg">
<path d="M15.6706 49.1953C16.0277 49.1836 16.3828 49.1709 16.7401 49.1869C16.8009 50.4206 16.9097 50.5621 15.6244 50.6166C14.8186 50.6296 13.5331 50.9758 13.1328 50.0745C13.2042 48.7481 14.7588 49.3013 15.6706 49.1953Z" fill="#454965"/>
<path d="M15.577 37.8027C16.4445 37.892 16.8376 38.6677 16.2308 39.0635C16.0417 39.1869 15.7668 39.1949 15.5555 39.2746L12.6908 39.2405C12.4745 39.1324 12.2272 38.9629 12.1698 38.7142C11.921 37.6374 13.2763 37.8885 13.8863 37.8891C14.4527 37.8897 15.013 37.8522 15.577 37.8027Z" fill="#454965"/>
<path d="M15.6284 25.9766C15.8597 26.0364 16.1023 26.1174 16.3403 26.1346C16.4359 26.3269 16.5393 26.5176 16.6123 26.7199C16.5362 26.8851 16.4535 27.0499 16.3884 27.2197C16.1242 27.3029 15.8425 27.3406 15.5838 27.429C15.1032 27.4175 12.7955 27.483 12.4984 27.2751C11.9466 26.8892 12.1387 26.1356 12.8009 26.0168C13.5209 25.888 14.7703 26.054 15.5838 25.981L15.6284 25.9766Z" fill="#454965"/>
<path d="M15.5842 17.8098C16.1725 17.8506 16.751 17.8714 17.3413 17.8467C17.3962 18.7403 17.374 19.6413 17.374 20.5363L17.3742 56.8227C17.3738 57.8101 17.3964 58.8036 17.3465 59.7898C16.8283 59.6579 16.2377 59.6397 15.7038 59.6636C15.7653 58.4849 15.6655 57.2762 15.6665 56.0937L15.6662 52.7194C15.6644 52.0208 15.6835 51.3129 15.624 50.6166C16.9093 50.5621 16.8005 50.4206 16.7397 49.1868C16.3824 49.1708 16.0273 49.1836 15.6702 49.1952C15.6929 48.2019 15.6529 47.2019 15.6383 46.2084L15.6004 42.5222C15.5843 41.5166 15.6657 40.2422 15.5554 39.2746C15.7668 39.1948 16.0417 39.1868 16.2308 39.0634C16.8375 38.6677 16.4444 37.8919 15.5769 37.8027C15.7774 34.6164 15.6323 30.6452 15.5835 27.4289C15.8423 27.3406 16.1239 27.3028 16.3882 27.2197C16.4533 27.0498 16.5359 26.8851 16.612 26.7198C16.539 26.5176 16.4357 26.3268 16.34 26.1346C16.102 26.1173 15.8594 26.0363 15.6282 25.9766C15.5069 23.5773 15.4662 20.2324 15.5842 17.8098Z" fill="#47CC54"/>
<path d="M66.591 64.3314C67.1223 65.0477 67.1332 66.2082 66.4123 66.8007C65.6237 67.0114 64.1052 66.9222 63.2504 66.9214L26.9358 66.9203C26.3954 66.9202 25.8269 66.9498 25.2897 66.8934C25.0414 66.6782 24.8177 66.4448 24.6035 66.1954C23.2898 66.2984 21.951 66.197 20.6325 66.239C20.0658 67.7114 18.0965 68.8645 16.5555 68.2185C16.1027 68.0288 15.7647 67.5665 15.4668 67.1934C17.1474 67.1198 18.9682 66.498 19.6479 64.796C21.1755 64.9482 22.923 64.8404 24.4712 64.829L66.1519 64.9017C66.7569 64.9034 66.4252 64.6763 66.591 64.3314Z" fill="#47CC54"/>
<path d="M63.0599 12.3988C63.3938 12.4307 63.672 12.6562 63.8558 12.9216C63.9399 13.4249 63.8752 13.9376 63.87 14.4442L63.8674 20.7008C63.8689 21.5047 64.2101 23.2166 63.0014 23.3277C62.2693 23.3951 58.8196 19.7216 58.0755 19.0703C57.3885 19.8747 56.5659 20.5884 55.8055 21.3238L46.0119 30.6284C43.375 33.1084 44.5 32.4794 40.7589 31.6938L37.0156 30.9413C36.3956 30.8147 35.674 30.7311 35.095 30.4792C31.959 33.2151 29.0104 36.1592 25.8814 38.8978C25.3095 39.3137 24.9214 38.9729 24.7021 38.3898C25.1069 37.3988 29.9098 33.4173 31.0119 32.4111L33.3894 30.2201C33.7756 29.8694 34.154 29.4728 34.5881 29.1831C36.9534 29.2919 41.357 30.4729 43.7491 30.9958C44.8083 29.9486 45.9031 28.9413 46.9799 27.9128L55.2431 20.0527C55.8825 19.4621 56.541 18.8763 57.1188 18.2241L54.7865 16.0133C54.2301 15.4911 53.4056 14.9549 53.1431 14.2146C53.6225 13.0823 54.5301 13.4782 55.6624 13.3377C58.124 13.0321 60.6149 12.8098 63.0599 12.3988ZM55.1874 14.6239C55.4605 14.8433 55.7335 15.0619 55.9981 15.2917C56.2224 15.1967 56.4209 15.1888 56.66 15.1812C58.6356 15.0228 60.5801 14.7504 62.5379 14.4453L62.5409 13.8594C60.082 13.9727 57.6689 14.7228 55.1874 14.6239Z" fill="#454965"/>
<path d="M55.998 15.2918C56.2223 15.1968 56.4208 15.1889 56.6599 15.1813C56.9134 15.4793 57.2245 15.72 57.5212 15.9736L57.4197 15.9893C57.4875 16.2251 57.7787 16.4758 57.9034 16.7122L57.891 16.7634L57.7975 16.814C57.8107 16.8731 57.8242 16.9253 57.8447 16.9825C57.2114 16.448 56.6185 15.8448 55.998 15.2918Z" fill="url(#paint0_linear_5422_32)"/>
<path d="M57.5214 15.9736C58.484 16.786 61.9948 20.0206 62.6198 21.104L62.6498 21.5638C61.0823 20.0036 59.3969 18.553 57.8449 16.9825C57.8244 16.9253 57.8109 16.8731 57.7978 16.814L57.8913 16.7634L57.9037 16.7121C57.7789 16.4758 57.4878 16.2251 57.4199 15.9893L57.5214 15.9736Z" fill="#FFCAB8"/>
<path d="M56.6602 15.1813C58.6358 15.0229 60.5803 14.7506 62.538 14.4454C62.7463 16.2262 62.6877 19.2489 62.6198 21.1041C61.9948 20.0207 58.484 16.7861 57.5214 15.9737C57.2248 15.7201 56.9137 15.4793 56.6602 15.1813Z" fill="#FA8C88"/>
<path d="M15.5848 17.8098C11.2554 16.8007 12.8389 9.93272 17.6095 11.1308C20.6008 11.882 21.3646 15.8698 18.5625 17.3237C18.6068 17.7133 18.5803 18.1187 18.5763 18.5111L18.566 59.3698C18.5649 59.7636 18.541 60.1705 18.5711 60.5625C19.3599 61.438 19.9716 62.2796 19.976 63.495C21.2921 63.5135 22.6103 63.5223 23.9256 63.4746C23.9584 61.8328 23.9405 60.1886 23.9404 58.5466L23.9401 46.9917C23.9404 44.5328 23.3304 44.0623 25.754 44.0828L30.0304 44.0876C32.5576 44.0782 32.042 44.294 32.0406 46.6415L32.0439 63.5556C34.5138 63.6086 37.1118 63.6146 39.5809 63.5563C39.631 62.7458 39.5886 61.9401 39.5833 61.1292L39.5803 39.8267C39.5805 39.0261 39.5409 37.9672 39.6568 37.1916C39.8145 36.1361 41.6489 36.5978 42.3649 36.5986L45.3896 36.5911C48.3408 36.5873 47.7021 36.8806 47.6895 39.4447L47.6884 56.626C47.6881 58.9386 47.6529 61.2563 47.702 63.568L52.5698 63.569C53.488 63.5687 54.438 63.5215 55.3516 63.5985L55.3541 34.5862C55.3525 33.8607 55.1658 33.1923 55.9021 32.7786C57.5094 32.7642 59.1196 32.7911 60.7275 32.7897C62.0479 32.7886 63.6308 32.2727 63.6209 33.9277L63.6094 59.7141C63.6096 61.0033 63.5668 62.3078 63.6483 63.5941L63.7014 63.599C64.7586 63.6886 65.901 63.2872 66.5915 64.3313C66.4256 64.6762 66.7574 64.9033 66.1524 64.9016L24.4716 64.829C22.9235 64.8403 21.176 64.9481 19.6484 64.796C18.9686 66.498 17.1479 67.1197 15.4673 67.1933C14.9761 67.0017 14.4873 66.7967 14.0528 66.4938C11.183 64.4928 12.3863 60.2121 15.7044 59.6636C16.2383 59.6397 16.8289 59.658 17.3471 59.7898C17.397 58.8036 17.3744 57.8101 17.3748 56.8227L17.3746 20.5363C17.3746 19.6413 17.3968 18.7403 17.3419 17.8467C16.7516 17.8715 16.1731 17.8506 15.5848 17.8098ZM56.7111 34.114C56.6756 36.4877 56.6998 38.8648 56.6998 41.239L56.696 62.4796C56.6949 62.8597 56.671 63.2581 56.71 63.6358L57.1786 63.6521C57.3663 61.2815 57.377 59.3571 57.3771 56.9678L57.377 39.5266C57.377 37.9187 57.4304 36.2908 57.349 34.6853C59.0198 34.7306 60.7026 34.7106 62.3738 34.686L62.382 34.1331C60.7168 34.0097 58.3949 34.052 56.7111 34.114ZM40.938 37.8902C40.797 46.3687 40.8396 55.1188 40.9375 63.6H41.4641C41.6476 62.8103 41.5628 61.5623 41.5628 60.7328L41.561 56.1303C41.561 50.2676 41.6143 44.4002 41.5489 38.5381C42.6991 38.5641 45.482 38.3827 46.4459 38.5683C46.4498 38.361 46.4516 38.1541 46.4698 37.9473C44.6374 37.8232 42.7753 37.896 40.938 37.8902ZM25.2694 45.4356C25.3293 46.9663 25.2923 48.5095 25.292 50.0416L25.2913 58.6111C25.2913 60.2771 25.261 61.9501 25.3136 63.6152C25.4813 63.6101 25.6493 63.607 25.8168 63.5973C25.9008 62.4886 25.861 61.381 25.8604 60.2697L25.8645 49.8513C25.8705 48.6002 25.9123 47.3186 25.8205 46.0723C27.4733 46.1342 29.1411 46.0983 30.794 46.0536L30.8038 45.4311C28.9635 45.3997 27.1095 45.399 25.2694 45.4356ZM15.6991 16.4325C15.6594 16.203 15.1955 15.8158 15.0574 15.3288C14.4766 13.2815 16.5035 12.2004 17.9499 13.1255C18.6631 13.5816 18.5133 14.1363 18.6724 14.8366L18.7704 14.8913C19.33 11.8628 14.7203 11.4608 14.3865 14.1993C14.2715 15.1425 14.8398 16.0656 15.6991 16.4325ZM14.0669 64.3387C14.0603 63.1335 14.351 61.9362 15.5381 61.3686C15.5355 61.2352 15.5486 61.1783 15.4753 61.0642C14.1159 61.5081 13.3548 63.0347 14.0669 64.3387Z" fill="#454965"/>
<path d="M15.4756 61.0642C15.8521 60.9971 16.185 61.0277 16.562 61.0719C16.263 61.2464 15.8631 61.23 15.5385 61.3686C15.5358 61.2352 15.549 61.1784 15.4756 61.0642Z" fill="white"/>
<path d="M15.6988 16.4325C15.659 16.203 15.1951 15.8158 15.057 15.3288C14.4763 13.2815 16.5031 12.2004 17.9495 13.1255C18.6628 13.5816 18.5129 14.1363 18.672 14.8366L18.77 14.8913C18.5875 16.2868 16.6805 17.1108 15.6988 16.4325Z" fill="#00B7F6"/>
<path d="M16.5613 61.0719C18.5253 61.435 19.597 64.0511 17.6829 65.2744C16.5199 66.0176 14.5268 65.8437 14.0665 64.3388C14.0599 63.1335 14.3506 61.9363 15.5378 61.3686C15.8624 61.23 16.2623 61.2464 16.5613 61.0719Z" fill="#47CC54"/>
<path d="M25.8202 46.0723C27.4729 46.1342 29.1408 46.0983 30.7937 46.0536C30.8395 47.1453 30.8104 48.2466 30.8104 49.3397L30.8103 60.295C30.8103 61.3915 30.8354 62.4941 30.7775 63.5891C29.3654 63.537 27.0609 63.755 25.8164 63.5973C25.9004 62.4886 25.8607 61.381 25.86 60.2697L25.8642 49.8513C25.8702 48.6002 25.9119 47.3186 25.8202 46.0723Z" fill="#47CC54"/>
<path d="M41.5486 38.5382C42.6989 38.5642 45.4817 38.3828 46.4456 38.5684C46.529 40.0173 46.5002 41.4708 46.4997 42.9217L46.5001 56.8724C46.5001 59.1041 46.5077 61.3287 46.4266 63.5592C45.4847 63.6028 42.3636 63.7281 41.4639 63.6001C41.6474 62.8104 41.5625 61.5624 41.5625 60.7329L41.5607 56.1304C41.5607 50.2677 41.614 44.4003 41.5486 38.5382Z" fill="#47CC54"/>
<path d="M62.3738 34.6861L62.3748 60.0237C62.3748 61.21 62.4181 62.4123 62.3452 63.5959C60.7755 63.5237 58.505 63.7919 57.1787 63.6522C57.3663 61.2816 57.3771 59.3572 57.3772 56.9679L57.3771 39.5267C57.3771 37.9188 57.4305 36.2909 57.3491 34.6854C59.0198 34.7307 60.7027 34.7107 62.3738 34.6861Z" fill="#47CC54"/>
<defs>
<linearGradient id="paint0_linear_5422_32" x1="57.4334" y1="16.2271" x2="56.2315" y2="15.2396" gradientUnits="userSpaceOnUse">
<stop stop-color="#FFD5BF"/>
<stop offset="1" stop-color="#FFEDDB"/>
</linearGradient>
</defs>
</svg>
