<svg width="80" height="80" viewBox="0 0 80 80" fill="none" xmlns="http://www.w3.org/2000/svg">
<path d="M17.8378 17.0892L56.255 17.0862C58.9896 17.0862 63.4824 16.3867 65.4465 18.4604C67.0379 20.1404 66.6608 22.4241 66.6605 24.5459L66.6616 44.2777C66.6619 47.1931 66.6924 50.1096 66.6073 53.0228C67.2266 53.0403 67.842 53.0827 68.4623 53.0829C69.7578 53.0833 71.1891 52.6096 71.198 54.3652C71.2275 60.2319 67.7421 62.6166 62.1678 62.6174C60.4479 62.5898 58.7253 62.6087 57.0051 62.6088L18.0669 62.6089C15.2815 62.6089 13.2515 62.5407 11.1168 60.4361C9.48284 58.8251 8.91035 56.8551 8.89368 54.6102C8.88092 52.8923 9.84478 53.0838 11.1394 53.0831L13.424 53.0842L13.4199 24.2552C13.4196 20.6498 13.2486 17.4182 17.8378 17.0892ZM32.3445 18.3402C30.9829 18.4653 29.574 18.3904 28.2048 18.3898L20.8968 18.3887C18.6408 18.3879 15.1618 17.8067 14.8113 20.9798C14.6623 22.3288 14.7331 23.7266 14.7333 25.0828L14.7159 53.0802L43.3319 53.0858C44.8268 53.0856 46.328 53.1134 47.822 53.0662C53.5505 53.2883 59.5208 53.0214 65.2878 53.0909C65.3356 50.7344 65.2834 48.3671 65.2831 46.0089L65.2873 22.3282C65.3051 20.2647 64.7239 18.4072 62.1883 18.3744C60.1523 18.3482 58.1086 18.3891 56.0718 18.3889L35.5466 18.3671C34.4806 18.3678 33.4083 18.4429 32.3445 18.3402ZM10.9433 55.1134C10.9001 59.1689 13.1101 59.8142 13.2366 60.3276L13.2065 60.3752C14.3338 61.4973 18.4669 61.2844 20.0244 61.2844L58.5001 61.2922C61.7216 61.2981 66.2729 62.0093 68.4661 58.9951C68.8695 58.5212 69.1549 57.9196 69.3449 57.3309C69.4824 56.9904 69.543 56.6416 69.5948 56.2798C69.4621 56.2678 69.4551 56.2741 69.3601 56.1831C69.4029 55.7992 69.4065 55.4104 69.4328 55.0249C67.0513 55.0724 64.7755 55.1572 62.3666 55.1573L15.1176 55.1576C14.1178 55.1578 11.7802 54.9932 10.9433 55.1134ZM10.1955 54.4389C10.3493 56.7608 10.9608 59.2419 13.2065 60.3752L13.2366 60.3276C13.1101 59.8142 10.9001 59.1689 10.9433 55.1134C11.7802 54.9932 14.1178 55.1578 15.1176 55.1576L62.3666 55.1573C64.7755 55.1572 67.0513 55.0724 69.4328 55.0249C69.4464 55.1143 69.4578 55.1571 69.515 55.2277L69.5778 55.2166C69.6648 55.0811 69.694 54.9394 69.7313 54.7854L69.7496 54.4407C69.1994 54.3836 68.627 54.4963 68.0709 54.4869C65.7608 54.4477 63.447 54.4853 61.1351 54.4853L12.202 54.4504C11.6701 54.4509 10.6403 54.3942 10.1955 54.4389Z" fill="#454965"/>
<path d="M69.433 55.0249C69.4466 55.1143 69.458 55.157 69.5152 55.2277L69.578 55.2165C69.665 55.081 69.6942 54.9394 69.7315 54.7854C69.7862 55.2633 69.6662 55.8049 69.595 56.2798C69.4624 56.2678 69.4554 56.274 69.3604 56.183C69.4031 55.7992 69.4067 55.4104 69.433 55.0249Z" fill="white"/>
<path d="M10.944 55.1134C11.7809 54.9932 14.1185 55.1578 15.1183 55.1575L62.3673 55.1573C64.7762 55.1572 67.052 55.0724 69.4335 55.0249C69.4072 55.4104 69.4036 55.7992 69.3608 56.183C69.4558 56.274 69.4628 56.2678 69.5955 56.2798C69.5437 56.6415 69.4831 56.9904 69.3456 57.3309C69.1556 57.9195 68.8702 58.5212 68.4668 58.995C66.2736 62.0093 61.7223 61.298 58.5008 61.2922L20.0251 61.2844C18.4676 61.2844 14.3345 61.4973 13.2072 60.3752L13.2373 60.3275C13.1108 59.8142 10.9008 59.1689 10.944 55.1134ZM46.1132 57.3162C46.6546 57.5449 46.5861 58.2933 46.0222 58.474C44.1383 59.0778 35.0962 58.248 34.4208 58.7125L34.4133 58.7759C34.38 59.0425 34.0121 58.9204 33.7078 58.9085C33.9838 59.6134 43.4391 59.3962 44.9896 59.3245C45.9717 59.2792 46.657 59.2163 47.1447 58.2475C46.9893 57.9044 46.8371 57.6464 46.5773 57.3725C46.4283 57.3185 46.2658 57.2328 46.1132 57.3162Z" fill="#47CC54"/>
<path d="M69.3599 56.183C69.4549 56.274 69.4619 56.2677 69.5946 56.2797C69.5428 56.6415 69.4822 56.9904 69.3447 57.3309C69.1547 57.9195 68.8693 58.5211 68.4659 58.995C68.3873 59.0246 68.3418 59.0607 68.2783 59.1132L68.2578 59.0895C68.6337 58.4567 68.8801 57.8262 69.1319 57.1387C69.2178 56.8225 69.2639 56.4962 69.3599 56.183Z" fill="#78F0AF"/>
<path d="M64.7108 60.4103L64.837 60.4043C64.3792 60.5962 62.6791 60.5624 62.5052 60.6803C62.7662 60.8279 63.1753 60.7088 63.4732 60.7795C63.2075 60.9304 60.0486 60.8437 59.6227 60.7707C60.4107 60.8665 60.4517 60.741 61.0625 60.6979L61.11 60.6949L61.1355 60.6345C59.0576 60.3929 55.5651 60.5052 53.4568 60.566C52.445 60.5182 51.4227 60.5574 50.4082 60.53C53.1295 60.6012 55.8578 60.5272 58.5798 60.5364L61.6617 60.5477C62.7017 60.552 63.6787 60.5793 64.7108 60.4103Z" fill="#1D9B38"/>
<path d="M46.1125 57.3162C46.6538 57.5449 46.5853 58.2933 46.0215 58.474C44.1376 59.0778 35.0955 58.248 34.4201 58.7125L34.4126 58.7759C34.3792 59.0425 34.0113 58.9204 33.7071 58.9085C33.222 58.6283 33.3081 58.0775 33.3002 57.586C33.9625 57.2897 34.6265 57.3514 35.3311 57.3534L43.814 57.3519C44.4442 57.3522 45.5442 57.4643 46.1125 57.3162Z" fill="#454965"/>
<path d="M39.4503 19.2362C42.8511 18.8464 43.3094 23.2515 40.2869 23.8205C37.4278 24.4957 36.2458 20.0405 39.4503 19.2362ZM39.7076 20.4709C38.9581 20.759 38.7486 21.3249 38.9421 22.0804C39.2821 22.4913 39.6316 22.649 40.1476 22.5373C41.4254 22.1292 41.0795 20.3643 39.7076 20.4709Z" fill="#454965"/>
</svg>
