<svg width="80" height="80" viewBox="0 0 80 80" fill="none" xmlns="http://www.w3.org/2000/svg">
<path d="M39.9482 8.1437C41.0638 8.13718 40.7928 9.44909 40.7894 10.1815L40.7912 12.7848L41.0449 12.7829C47.6482 12.7866 54.7712 15.5048 59.4644 20.1987C64.4546 25.1897 67.5343 32.3079 67.5284 39.3897C68.7887 39.3596 70.3278 39.3101 71.5727 39.4049C71.7805 39.6637 71.8492 39.8945 71.9238 40.2101C71.8067 40.4846 71.7109 40.6275 71.4714 40.8099C70.3438 40.9305 68.7552 40.7868 67.5477 40.8239C67.4723 42.0629 67.4399 43.287 67.2594 44.5188C65.7408 54.8752 57.9807 64.2583 47.5337 66.443C45.2797 66.9144 43.0599 67.0211 40.7823 67.2235C40.7962 68.6451 40.8058 70.0715 40.7959 71.493C40.6515 71.7777 40.4902 71.8824 40.1985 72.0021C38.7578 71.9789 39.2947 68.3469 39.3705 67.2176C31.835 66.7435 26.4002 65.5153 20.665 59.8927C15.5156 54.8445 12.6841 47.969 12.6185 40.8033C11.6053 40.7739 9.3278 40.9606 8.50206 40.6558C8.3255 40.4502 8.25062 40.256 8.17285 40.0015C8.50234 39.1245 9.24995 39.371 10.0303 39.3728C10.8817 39.3746 11.7331 39.3763 12.5844 39.3919C12.6398 38.2174 12.6926 37.0593 12.862 35.8942C14.8463 22.2511 25.5205 13.0305 39.319 12.7787C39.3528 11.4323 38.7629 8.61878 39.9482 8.1437ZM38.1906 14.2156C30.598 14.5518 23.717 18.0177 19.1381 24.1062C15.6871 28.6953 14.3303 33.733 13.9132 39.3745L16.4211 39.3714C17.3184 39.3631 19.3833 39.1792 18.3884 40.6259C17.7693 40.9508 14.8044 40.8232 13.9372 40.7973C14.144 48.1213 17.0533 54.3919 22.3044 59.3615C26.9267 63.7361 32.9573 65.7557 39.2637 65.708C39.3497 64.5928 39.202 62.7511 39.3895 61.7845C39.7038 61.3639 40.0513 61.1417 40.5025 61.5287C41.0484 61.9966 40.7889 64.9755 40.7868 65.731C41.1466 65.7251 41.5079 65.7254 41.8672 65.7081C55.7449 65.1188 65.7084 54.7336 66.1417 40.7925L63.2682 40.8108C62.8034 40.8126 62.3095 40.8461 61.8475 40.8048C61.2126 40.4114 61.1505 39.8689 61.7516 39.4019C62.9382 39.1659 64.7579 39.4824 66.1355 39.3264C65.9451 30.1876 60.9483 21.4907 52.8521 17.1537C49.4967 15.3562 44.6084 14.0318 40.7909 14.1921C40.7908 15.2075 41.3067 18.3848 40.0277 18.3675C38.9426 18.3527 39.3307 14.8057 39.3535 14.1698C38.9663 14.1849 38.5776 14.1948 38.1906 14.2156Z" fill="#454965"/>
<path d="M39.9701 23.337C40.5249 23.4 40.6064 23.9615 40.8151 24.0048C41.4477 24.1363 42.1628 24.1243 42.8972 24.2786C50.4012 25.8544 55.3768 31.7784 55.6682 39.3559C56.5239 39.5874 57.0354 39.5874 56.5725 40.6197C56.2821 40.7404 55.9913 40.8094 55.6847 40.8773C55.3828 48.3278 49.6149 54.6027 42.2261 55.5878C41.7664 55.6491 41.3004 55.6736 40.8464 55.7708C40.631 56.3045 40.517 56.4092 39.9303 56.572C39.5461 56.48 39.3838 56.1557 39.2134 55.8357C34.4491 55.4368 30.0483 53.0942 27.2144 49.2198C25.7072 47.1593 23.9281 43.5301 24.345 40.8499C24.1698 40.848 23.9944 40.8524 23.8192 40.8548C22.8441 40.2861 23.293 39.2362 24.2936 39.2089C24.1674 36.2583 25.7375 32.4302 27.5685 30.1606C30.6135 26.3859 34.5268 24.412 39.3194 23.905L39.3564 23.8542C39.5363 23.6052 39.6992 23.4724 39.9701 23.337ZM40.7809 25.3685C40.7515 26.0989 40.8146 26.8746 40.6792 27.5917C40.5517 27.751 40.4233 27.9397 40.2062 27.9722C39.0666 28.143 39.321 26.0447 39.2821 25.3903C35.2376 25.8321 31.5793 27.4659 28.9734 30.7195C27.0847 33.0777 25.6374 36.2565 25.6889 39.3409C26.5227 39.3484 27.3323 39.2328 28.1596 39.4029C29.8341 40.9384 26.0926 40.7602 25.6538 40.7873C26.0966 48.0932 31.9885 53.7726 39.2091 54.3283L39.2842 54.3372C39.4825 53.7485 39.0881 52.7036 39.4206 51.9516C41.0656 50.527 40.7685 53.7874 40.8033 54.41C41.7695 54.2027 42.7218 54.0722 43.6742 53.7897C48.8007 52.2685 53.1451 48.2275 54.0579 42.8367C54.1704 42.1716 54.1856 41.4935 54.2867 40.8281C53.5813 40.8516 52.5091 40.9746 51.9555 40.4548C50.7215 39.296 53.8875 39.2856 54.311 39.2876C54.2149 38.1962 54.1162 37.1154 53.8427 36.0507C52.4521 30.639 47.6105 26.7938 42.2835 25.652C41.8088 25.5503 41.2619 25.3807 40.7809 25.3685Z" fill="#454965"/>
<path d="M39.4455 31.4524C43.7816 31.0295 47.8312 34.586 48.3062 38.8434C48.8202 43.4505 45.2945 47.513 40.7519 48.0068C36.4031 48.3679 32.2197 45.2321 31.7759 40.8396C31.3032 36.162 34.7383 31.8855 39.4455 31.4524ZM35.1693 44.4586C35.0271 44.1206 34.7874 43.8045 34.6089 43.4819C31.5293 37.9175 38.2529 30.9252 43.691 34.2404C44.0423 34.4545 44.3439 34.7295 44.6784 34.9666L44.7744 34.9473C38.1809 28.6399 29.2792 38.2736 35.1693 44.4586Z" fill="#454965"/>
<path d="M35.17 44.4587C35.0277 44.1206 34.788 43.8046 34.6096 43.482C31.5299 37.9176 38.2535 30.9252 43.6917 34.2405C44.0429 34.4545 44.3446 34.7296 44.679 34.9667L44.775 34.9474C49.2162 38.8556 46.1363 46.2927 40.461 46.6211C39.1152 46.699 35.6432 45.8099 35.17 44.4587Z" fill="#47CC54"/>
</svg>
