<svg width="80" height="80" viewBox="0 0 80 80" fill="none" xmlns="http://www.w3.org/2000/svg">
<path d="M59.1862 30.0824C64.806 29.5358 67.7718 35.2622 65.0956 39.8565C64.1754 41.4362 62.0466 43.7283 60.206 44.2164C58.9726 44.3867 57.8616 43.7401 56.9071 43.025C51.3703 38.8768 52.3857 31.0272 59.1862 30.0824Z" fill="#454965"/>
<path d="M59.4552 31.4134C63.1488 31.1008 65.855 34.9089 64.3576 38.2599C63.6276 39.8932 61.7659 42.2026 60.0395 42.855C57.6062 43.103 54.8597 39.1422 54.6387 36.891C54.3634 34.0879 56.7702 31.6847 59.4552 31.4134Z" fill="white"/>
<path d="M19.7669 30.124C25.1752 29.5965 28.8009 36.5594 24.8973 41.1954C23.8201 42.4747 22.0693 44.2534 20.3419 44.4021C17.0356 44.5307 13.7883 40.3331 13.5835 37.3259C13.3271 33.5627 15.98 30.3748 19.7669 30.124Z" fill="#454965"/>
<path d="M15.0275 37.1453C14.4294 32.3609 21.0033 29.4387 24.1523 33.588L24.0762 33.6459C23.9408 33.6084 23.3574 33.0636 23.1625 32.9334C20.0392 30.8456 16.1676 32.8395 15.5504 36.4846C15.4709 36.3551 15.5008 36.2886 15.4966 36.145L15.3692 36.2316C14.9375 35.8657 15.1342 36.9145 15.0275 37.1453Z" fill="url(#paint0_linear_5422_50)"/>
<path d="M15.5502 36.4846C16.1675 32.8396 20.0391 30.8456 23.1624 32.9334C23.3572 33.0636 23.9407 33.6084 24.0761 33.646L24.1521 33.588C26.5631 36.6394 24.5446 40.0538 21.9077 42.1323C19.8349 43.7658 17.7779 42.7351 16.5352 40.6222C15.8375 39.6528 15.0377 38.3828 15.0273 37.1454C15.1341 36.9145 14.9374 35.8658 15.3691 36.2316L15.4964 36.145C15.5007 36.2887 15.4708 36.3551 15.5502 36.4846Z" fill="#47CC54"/>
<path d="M15.0273 37.1454C15.1341 36.9145 14.9374 35.8657 15.3691 36.2316L15.4964 36.145C15.5007 36.2887 15.4708 36.3551 15.5502 36.4846C15.3424 38.8329 16.5264 39.8973 16.5352 40.6221C15.8375 39.6528 15.0377 38.3828 15.0273 37.1454Z" fill="white"/>
<path d="M39.2413 27.0739C43.5739 26.626 48.2533 29.5931 48.7707 34.1149C49.3384 39.0761 45.4502 43.224 40.6748 43.7511C38.0624 43.9087 35.9301 43.2135 33.9395 41.5101C28.0062 36.4324 31.6384 27.6527 39.2413 27.0739Z" fill="#454965"/>
<path d="M39.637 28.4043C43.4023 28.1388 47.2955 30.8428 47.48 34.7872C47.6635 38.7059 44.114 42.2597 40.2541 42.4264C34.275 42.7153 29.7328 35.6768 34.0547 30.9164C35.4847 29.3412 37.5357 28.5004 39.637 28.4043Z" fill="white"/>
<path d="M25.2405 44.9316C25.648 44.907 25.9539 45.2437 25.9842 45.644C26.0279 46.2206 25.1544 46.6606 24.7631 46.9336C21.2899 49.3568 18.2348 49.4577 15.0009 46.4216C12.843 47.0038 10.8374 48.1552 10.2766 50.4553C9.95429 51.7772 10.0477 56.0923 10.1268 57.7127L13.5869 57.7162C13.6171 56.8786 13.2553 53.4757 14.2249 53.4726C15.1705 53.4696 15.0125 54.4634 15.012 55.0815L15.0056 57.7138L22.3633 57.714C23.8655 57.7143 25.3735 57.7417 26.8748 57.6915C27.0638 54.9395 26.2918 51.1919 28.0504 48.9921C29.2989 47.4304 31.2833 46.4415 33.0825 45.6556C34.652 44.9701 34.9347 44.6136 36.0737 45.9302C40.267 50.7764 44.3353 45.1939 45.3238 45.1439C45.7767 45.121 46.2805 45.3465 46.6976 45.5061C50.9627 47.1391 53.1721 48.9883 53.1679 53.5905L53.1611 56.163C53.1577 56.6715 53.1316 57.1833 53.1607 57.6909C57.0334 57.8757 61.0248 57.6016 64.9391 57.7371C64.9219 56.9159 64.6062 53.6519 65.4703 53.5288C66.5329 53.3772 66.313 54.6813 66.3103 55.3292C66.3071 56.1236 66.2958 56.9184 66.3251 57.7124C67.3811 57.7713 68.4348 57.6726 69.4935 57.762C69.6176 55.8599 69.7252 51.5471 69.1889 49.9523C68.4488 47.7513 66.4405 47.3787 64.6088 46.4697C64.3543 46.6471 64.1127 46.8508 63.8676 47.0414C59.7031 50.0567 57.5965 48.6153 53.7017 46.1063C53.2816 44.0691 55.1854 45.3889 55.9013 45.8974C61.3364 49.7568 62.9258 44.6878 64.8348 45.1343C66.571 45.5404 69.1577 47.0304 70.0472 48.5337C70.9281 50.0223 70.9282 51.5853 70.9271 53.2622L70.9262 55.9239C70.9272 56.6773 71.0406 58.0265 70.8653 58.7004C70.3071 59.352 69.4017 59.0632 68.638 59.0609H57.3891C55.9819 59.061 54.5695 59.0854 53.1629 59.0421C53.1162 59.9562 53.3397 62.7696 52.9982 63.3865C52.6869 63.9488 51.4258 63.7034 50.8895 63.7026L29.9145 63.7006C29.3666 63.7005 27.7885 63.8679 27.3246 63.6162C26.6507 63.2503 26.9311 59.866 26.8589 59.0234L10.9083 59.0609C9.10146 59.0681 8.75944 59.4873 8.76874 57.2806L8.77272 52.9475C8.77415 51.0246 8.88395 49.2436 10.1647 47.6851C11.1394 46.499 13.6469 45.1391 15.2057 44.9885L15.2639 45.0141C15.7473 45.2243 16.1472 45.622 16.5555 45.9488C19.0768 47.9665 21.1374 47.7841 23.7803 45.8936C24.2599 45.5505 24.6908 45.1593 25.2405 44.9316Z" fill="#454965"/>
<path d="M28.5262 62.2958C28.2255 62.2446 28.3083 59.9533 28.3082 59.5753L28.3071 53.8404C28.3036 50.067 29.3412 48.8676 32.9849 47.2836C33.2689 47.1603 34.6405 46.5716 34.8338 46.6478C34.8512 46.8844 34.8873 47.1316 34.7531 47.3418C34.2793 47.2118 32.2417 48.3481 31.7378 48.636C28.4709 50.5022 28.8621 51.983 28.8644 55.2993L28.8619 60.5058C28.8585 61.2477 29.2246 62.291 28.5262 62.2958Z" fill="white"/>
<path d="M34.834 46.6478C35.5794 47.8299 37.3003 48.7991 38.6361 49.0963C41.419 49.7155 43.6401 48.4617 45.531 46.5804C46.5421 47.0424 48.9476 47.9144 49.6624 48.6921C50.1617 49.0157 50.6066 49.4753 50.9383 49.9681C51.719 51.0522 51.7256 52.0721 51.7256 53.3502L51.7236 59.1048C51.7241 60.1596 51.7393 61.1977 51.6239 62.2484C50.7871 62.2994 48.8316 62.3928 48.0151 62.2955L47.4974 62.284C47.337 60.9326 47.4186 59.5272 47.3998 58.1664C47.3799 57.6389 47.4181 57.097 47.4467 56.5697C47.3678 55.6552 45.9773 56.0079 45.8639 56.8697C45.667 58.366 45.8569 60.7027 45.8208 62.2899L35.9419 62.2869C35.5258 62.2908 35.098 62.3238 34.6839 62.2839L34.2456 62.258C34.129 60.7074 34.1744 58.9849 34.2113 57.427C34.1884 57.1041 34.1808 56.7785 34.166 56.455C33.8796 55.8899 32.8356 56.0247 32.6752 56.6096C32.5792 56.9598 32.6825 57.5858 32.6868 57.9696L32.6927 60.4549C32.6997 61.0665 32.7308 61.6783 32.7188 62.2899C31.9641 62.342 29.2032 62.3898 28.5264 62.2958C29.2248 62.291 28.8587 61.2476 28.8621 60.5058L28.8646 55.2993C28.8623 51.983 28.4711 50.5021 31.738 48.636C32.2419 48.348 34.2795 47.2118 34.7533 47.3418C34.8875 47.1316 34.8514 46.8844 34.834 46.6478Z" fill="#47CC54"/>
<path d="M49.6624 48.6921C50.1618 49.0157 50.6066 49.4753 50.9383 49.9681L50.8574 50.0261C50.6311 49.943 49.7289 49.1073 49.4287 48.8855C49.7346 48.9436 50.0219 49.3549 50.3021 49.3425C50.2772 49.154 49.7832 48.9145 49.6624 48.6921Z" fill="#A4E799"/>
<path d="M34.166 56.455C34.364 56.0047 34.5295 56.2218 34.5219 56.5776C34.5883 56.972 34.5891 57.3712 34.6351 57.7674C34.7116 58.8788 34.8476 61.1784 34.6839 62.284L34.2456 62.2581C34.129 60.7074 34.1744 58.985 34.2113 57.4271C34.1884 57.1042 34.1808 56.7786 34.166 56.455Z" fill="white"/>
<path d="M34.166 56.455C34.364 56.0047 34.5295 56.2218 34.5219 56.5776L34.4651 56.5771C34.3598 56.8492 34.4764 57.1706 34.3394 57.4261L34.3112 56.6674C34.2485 56.9204 34.3047 57.1754 34.2113 57.4271C34.1884 57.1042 34.1808 56.7786 34.166 56.455Z" fill="#CDF3D0"/>
<path d="M47.447 56.5698C47.9223 55.6156 48.0969 57.1641 48.0178 57.6183C48.0723 58.5195 48.1829 61.4335 48.0154 62.2956L47.4976 62.2841C47.3372 60.9327 47.4188 59.5273 47.4 58.1665C47.3802 57.6389 47.4183 57.097 47.447 56.5698Z" fill="#CDF3D0"/>
<path d="M47.447 56.5698C47.9223 55.6156 48.0969 57.1641 48.0178 57.6183C47.7164 57.295 48.4413 56.7366 47.4539 57.0049C47.4915 57.3687 47.5158 57.8134 47.4 58.1665C47.3802 57.6389 47.4183 57.097 47.447 56.5698Z" fill="#A4E799"/>
<path d="M34.8346 46.6478C35.58 47.8299 37.3009 48.7991 38.6367 49.0963C41.4195 49.7155 43.6407 48.4617 45.5316 46.5804C46.5427 47.0424 48.9481 47.9144 49.663 48.6921C49.7837 48.9145 50.2777 49.154 50.3026 49.3425C50.0224 49.3549 49.7352 48.9436 49.4292 48.8854C48.3459 48.1724 47.1406 47.6885 45.8864 47.3748C45.4899 47.6511 45.1542 48.0135 44.7677 48.3045C41.6046 50.6862 38.7395 50.195 35.6617 48.0576C35.354 47.8441 35.0008 47.6247 34.7539 47.3418C34.888 47.1316 34.852 46.8844 34.8346 46.6478Z" fill="#CDF3D0"/>
<defs>
<linearGradient id="paint0_linear_5422_50" x1="21.1898" y1="36.4613" x2="16.6288" y2="32.9615" gradientUnits="userSpaceOnUse">
<stop stop-color="#C0F1E2"/>
<stop offset="1" stop-color="white"/>
</linearGradient>
</defs>
</svg>
