<svg width="32" height="32" viewBox="0 0 32 32" fill="none" xmlns="http://www.w3.org/2000/svg">
<path d="M17.3337 28.0001L17.3337 4.00008C17.3337 3.20008 16.8003 2.66675 16.0003 2.66675C15.2003 2.66675 14.667 3.20008 14.667 4.00008L14.667 28.0001C14.667 28.8001 15.2003 29.3334 16.0003 29.3334C16.8003 29.3334 17.3337 28.8001 17.3337 28.0001Z" fill="#47CC54"/>
<path d="M24 21.3333C24 20.9333 23.8667 20.6667 23.6 20.4C23.0667 19.8667 22.2667 19.8667 21.7333 20.4L16 26.1333L10.2667 20.4C9.73333 19.8667 8.93333 19.8667 8.4 20.4C7.86667 20.9333 7.86667 21.7333 8.4 22.2667L15.0667 28.9333C15.6 29.4667 16.4 29.4667 16.9333 28.9333L23.6 22.2667C23.8667 22 24 21.7333 24 21.3333Z" fill="#47CC54"/>
</svg>
