<svg width="24" height="24" viewBox="0 0 24 24" fill="none" xmlns="http://www.w3.org/2000/svg">
<path d="M11.4614 6.50621C11.1865 6.23067 11.0321 5.85724 11.0323 5.46797C11.0325 5.0787 11.1873 4.70544 11.4625 4.43019C11.7378 4.15493 12.111 4.00021 12.5003 4C12.8896 3.99979 13.263 4.15412 13.5385 4.42909L20.0698 10.9603C20.3452 11.2358 20.5 11.6094 20.5 11.9989C20.5 12.3884 20.3452 12.762 20.0698 13.0375L13.5385 19.5687C13.263 19.8437 12.8896 19.998 12.5003 19.9978C12.111 19.9976 11.7378 19.8429 11.4625 19.5676C11.1873 19.2924 11.0325 18.9191 11.0323 18.5298C11.0321 18.1406 11.1865 17.7671 11.4614 17.4916L16.9541 11.9989L11.4614 6.50621ZM4.93016 19.5687C5.20561 19.8442 5.57919 19.9989 5.96873 19.9989C6.35826 19.9989 6.73184 19.8442 7.00729 19.5687L13.5385 13.0375C13.814 12.762 13.9687 12.3884 13.9687 11.9989C13.9687 11.6094 13.814 11.2358 13.5385 10.9603L7.00729 4.42909C6.73174 4.15412 6.35832 3.99979 5.96905 4C5.57978 4.00021 5.20652 4.15493 4.93127 4.43019C4.65601 4.70544 4.50128 5.0787 4.50108 5.46797C4.50087 5.85724 4.6552 6.23067 4.93016 6.50621L10.4229 11.9989L4.93016 17.4916C4.65472 17.767 4.49998 18.1406 4.49998 18.5301C4.49998 18.9197 4.65472 19.2933 4.93016 19.5687Z" fill="white"/>
</svg>
