<svg width="16" height="16" viewBox="0 0 16 16" fill="none" xmlns="http://www.w3.org/2000/svg">
<path fill-rule="evenodd" clip-rule="evenodd" d="M5.71686 15.25V15.25C4.47486 15.25 3.29436 14.7505 2.39286 13.8438C0.601861 12.0415 0.528361 9.184 2.22861 7.47325L7.76811 1.90075C8.34486 1.32025 9.12336 1 9.95961 1C10.8544 1 11.7049 1.35925 12.3536 2.01175C13.6444 3.31 13.6939 5.37325 12.4631 6.61075L6.91686 12.1825C6.55761 12.5447 6.07386 12.7435 5.55486 12.7435V12.7435C5.00661 12.7435 4.48686 12.5245 4.09236 12.1277C3.30261 11.332 3.27786 10.0637 4.03761 9.29875L9.15636 4.1575C9.44886 3.8635 9.92286 3.862 10.2169 4.1545C10.5101 4.447 10.5116 4.92175 10.2191 5.215L5.10111 10.357C4.92111 10.5385 4.94586 10.8588 5.15661 11.0703C5.26611 11.1805 5.41161 11.2435 5.55486 11.2435V11.2435C5.63736 11.2435 5.75586 11.2232 5.85336 11.125L11.3996 5.55325C12.0499 4.8985 12.0011 3.78475 11.2901 3.06925C10.6099 2.38525 9.45561 2.33125 8.83161 2.95825L3.29211 8.53075C2.17161 9.658 2.24511 11.5675 3.45711 12.7863C4.07436 13.408 4.87686 13.75 5.71686 13.75C6.46761 13.75 7.16361 13.4665 7.67511 12.952L13.2154 7.3795C13.5071 7.08625 13.9819 7.084 14.2759 7.3765C14.5691 7.669 14.5706 8.143 14.2789 8.437L8.73861 14.0095C7.94361 14.809 6.87036 15.25 5.71686 15.25" fill="#454965"/>
</svg>
