<svg width="80" height="80" fill="none" xmlns="http://www.w3.org/2000/svg"><path d="M15.67 49.195c.358-.011.713-.024 1.07-.008.06 1.234.17 1.375-1.116 1.43-.805.013-2.09.359-2.491-.542.071-1.327 1.626-.774 2.538-.88ZM15.577 37.803c.868.089 1.26.865.654 1.26-.19.124-.464.132-.676.212l-2.864-.035c-.216-.108-.464-.277-.521-.526-.249-1.077 1.106-.825 1.716-.825.567 0 1.127-.037 1.691-.086ZM15.628 25.977c.232.06.474.14.712.158.096.192.2.383.272.585-.076.165-.159.33-.224.5-.264.083-.546.12-.804.209-.48-.011-2.788.054-3.086-.154-.551-.386-.36-1.14.303-1.258.72-.129 1.97.037 2.783-.036l.044-.004Z" fill="#454965"/><path d="M15.584 17.81c.588.04 1.167.061 1.757.037.055.893.033 1.794.033 2.69v36.286c0 .987.022 1.98-.027 2.967-.519-.132-1.11-.15-1.643-.126.061-1.18-.039-2.388-.038-3.57v-3.375c-.002-.698.018-1.406-.042-2.102 1.285-.055 1.176-.196 1.116-1.43-.358-.016-.713-.003-1.07.008.023-.993-.017-1.993-.032-2.987l-.038-3.686c-.016-1.005.066-2.28-.045-3.247.212-.08.487-.088.676-.212.606-.395.213-1.171-.654-1.26.2-3.187.055-7.158.007-10.374.258-.088.54-.126.804-.21.065-.17.148-.334.224-.5-.073-.201-.176-.392-.272-.584-.238-.018-.48-.099-.712-.158-.121-2.4-.162-5.745-.044-8.167ZM66.591 64.331c.531.717.542 1.877-.179 2.47-.788.21-2.307.121-3.162.12H26.936c-.54 0-1.11.029-1.646-.028a6.622 6.622 0 0 1-.686-.698c-1.314.103-2.653.002-3.971.044-.567 1.472-2.537 2.626-4.078 1.98-.452-.19-.79-.652-1.088-1.026 1.68-.073 3.501-.695 4.18-2.397 1.529.152 3.276.044 4.824.033l41.68.073c.606.001.274-.226.44-.57Z" fill="#47CC54"/><path d="M63.06 12.399c.334.032.612.257.796.523.084.503.02 1.016.014 1.522l-.003 6.257c.002.804.343 2.516-.866 2.627-.732.067-4.181-3.606-4.925-4.258-.688.805-1.51 1.518-2.27 2.254l-9.794 9.304c-2.637 2.48-1.512 1.851-5.253 1.066l-3.743-.753c-.62-.126-1.342-.21-1.921-.462-3.136 2.736-6.085 5.68-9.214 8.419-.572.416-.96.075-1.179-.508.405-.991 5.208-4.973 6.31-5.979l2.377-2.19c.387-.352.765-.748 1.2-1.038 2.364.109 6.768 1.29 9.16 1.813 1.06-1.047 2.154-2.055 3.23-3.083l8.264-7.86c.64-.59 1.298-1.177 1.876-1.829l-2.333-2.21c-.556-.523-1.38-1.06-1.643-1.8.48-1.132 1.387-.736 2.52-.876 2.461-.306 4.952-.528 7.397-.94Zm-7.873 2.225c.274.22.547.438.811.668.224-.095.423-.103.662-.11 1.976-.16 3.92-.432 5.878-.737l.003-.586c-2.459.114-4.872.864-7.354.765Z" fill="#454965"/><path d="M55.998 15.292c.224-.095.423-.103.662-.11.253.297.565.538.861.792l-.101.015c.067.236.359.487.483.723l-.012.051-.093.051c.013.06.026.111.047.169-.634-.535-1.227-1.138-1.847-1.691Z" fill="url(#a)"/><path d="M57.521 15.974c.963.812 4.474 4.047 5.099 5.13l.03.46c-1.568-1.56-3.253-3.011-4.805-4.581a1.337 1.337 0 0 1-.047-.169l.093-.05.013-.052c-.125-.236-.416-.487-.484-.723l.101-.015Z" fill="#FFCAB8"/><path d="M56.66 15.181c1.976-.158 3.92-.43 5.878-.736.208 1.781.15 4.804.082 6.66-.625-1.084-4.136-4.319-5.099-5.131-.296-.254-.607-.495-.86-.793Z" fill="#FA8C88"/><path d="M15.585 17.81c-4.33-1.01-2.746-7.877 2.024-6.68 2.992.752 3.756 4.74.953 6.194.045.39.018.795.014 1.187l-.01 40.859c-.001.394-.025.8.005 1.193.789.875 1.4 1.717 1.405 2.932 1.316.019 2.634.027 3.95-.02.032-1.642.015-3.286.014-4.928V46.992c0-2.46-.61-2.93 1.814-2.91l4.276.006c2.528-.01 2.012.206 2.01 2.553l.004 16.915c2.47.053 5.068.059 7.537 0 .05-.81.008-1.616.002-2.427l-.003-21.302c0-.8-.04-1.86.077-2.635.158-1.056 1.992-.594 2.708-.593l3.025-.008c2.95-.004 2.312.29 2.3 2.854l-.002 17.181c0 2.313-.035 4.63.014 6.942l4.868.001c.918 0 1.868-.047 2.782.03l.002-29.013c-.002-.725-.188-1.394.548-1.807 1.607-.015 3.218.012 4.825.01 1.32 0 2.904-.516 2.894 1.139l-.012 25.786c0 1.29-.042 2.594.04 3.88l.052.005c1.058.09 2.2-.312 2.89.732-.165.345.166.572-.439.57l-41.68-.072c-1.549.011-3.296.12-4.824-.033-.68 1.702-2.5 2.324-4.18 2.397-.492-.191-.98-.396-1.415-.7-2.87-2-1.667-6.28 1.651-6.83.534-.023 1.125-.005 1.643.127.05-.986.027-1.98.028-2.967V20.536c0-.895.022-1.796-.033-2.69a15.7 15.7 0 0 1-1.757-.036ZM56.71 34.114c-.035 2.374-.011 4.75-.011 7.125l-.004 21.24c-.001.38-.025.78.014 1.157l.469.016c.187-2.37.198-4.295.198-6.684V39.527c0-1.608.053-3.236-.028-4.842 1.67.046 3.354.026 5.025.001l.008-.553c-1.665-.123-3.987-.081-5.67-.019ZM40.938 37.89c-.141 8.479-.098 17.229 0 25.71h.526c.184-.79.099-2.038.099-2.867l-.002-4.603c0-5.862.053-11.73-.012-17.592 1.15.026 3.933-.155 4.897.03.004-.207.006-.414.024-.62-1.833-.125-3.695-.052-5.532-.058Zm-15.669 7.546c.06 1.53.023 3.074.023 4.606v8.57c0 1.665-.031 3.338.022 5.003.167-.005.335-.008.503-.018.084-1.108.044-2.216.043-3.327l.005-10.419c.006-1.25.047-2.532-.044-3.779 1.652.062 3.32.026 4.973-.018l.01-.623c-1.84-.031-3.694-.032-5.535.005ZM15.7 16.433c-.04-.23-.504-.617-.642-1.104-.58-2.048 1.446-3.129 2.893-2.204.713.457.563 1.011.722 1.712l.098.054c.56-3.028-4.05-3.43-4.383-.692-.116.944.453 1.867 1.312 2.234Zm-1.632 47.906c-.007-1.206.284-2.403 1.471-2.97-.002-.134.01-.19-.063-.305-1.36.444-2.12 1.97-1.408 3.275Z" fill="#454965"/><path d="M15.476 61.064c.376-.067.709-.036 1.086.008-.299.174-.699.158-1.024.297-.002-.134.011-.19-.062-.305Z" fill="#fff"/><path d="M15.699 16.433c-.04-.23-.504-.617-.642-1.104-.58-2.048 1.446-3.129 2.893-2.204.713.457.563 1.011.722 1.712l.098.054c-.183 1.396-2.09 2.22-3.071 1.542Z" fill="#00B7F6"/><path d="M16.561 61.072c1.964.363 3.036 2.98 1.122 4.202-1.163.744-3.156.57-3.617-.935-.006-1.206.285-2.403 1.472-2.97.324-.139.724-.123 1.023-.297ZM25.82 46.072c1.653.062 3.32.026 4.974-.018.046 1.091.016 2.193.016 3.286v10.955c0 1.096.025 2.2-.032 3.294-1.413-.052-3.717.166-4.962.008.084-1.108.045-2.216.044-3.327l.004-10.419c.006-1.25.048-2.532-.044-3.779ZM41.549 38.538c1.15.026 3.933-.155 4.897.03.083 1.45.054 2.903.054 4.354v13.95c0 2.232.008 4.457-.073 6.687-.942.044-4.063.17-4.963.041.183-.79.099-2.038.099-2.867l-.002-4.603c0-5.862.053-11.73-.012-17.592ZM62.374 34.686v25.338c0 1.186.044 2.388-.029 3.572-1.57-.072-3.84.196-5.166.056.187-2.37.198-4.295.198-6.684V39.527c0-1.608.053-3.236-.028-4.842 1.67.046 3.354.026 5.025.001Z" fill="#47CC54"/><defs><linearGradient id="a" x1="57.433" y1="16.227" x2="56.231" y2="15.24" gradientUnits="userSpaceOnUse"><stop stop-color="#FFD5BF"/><stop offset="1" stop-color="#FFEDDB"/></linearGradient></defs></svg>