<svg width="80" height="80" fill="none" xmlns="http://www.w3.org/2000/svg"><path d="m17.838 17.09 38.417-.004c2.735 0 7.227-.7 9.191 1.374 1.592 1.68 1.215 3.964 1.215 6.086v19.732c0 2.915.031 5.832-.054 8.745.62.017 1.235.06 1.855.06 1.296 0 2.727-.473 2.736 1.282.03 5.867-3.456 8.252-9.03 8.252-1.72-.027-3.443-.008-5.163-.008H18.067c-2.786 0-4.816-.068-6.95-2.173-1.634-1.61-2.207-3.58-2.223-5.826-.013-1.718.95-1.526 2.245-1.527l2.285.001-.004-28.829c0-3.605-.171-6.837 4.418-7.166Zm14.506 1.25c-1.361.125-2.77.05-4.14.05l-7.307-.001c-2.256-.001-5.735-.582-6.086 2.59-.149 1.35-.078 2.748-.078 4.104l-.017 27.997 28.616.006c1.495 0 2.996.027 4.49-.02 5.728.222 11.699-.045 17.466.025.048-2.357-.005-4.724-.005-7.082l.004-23.68c.018-2.064-.563-3.922-3.099-3.955-2.036-.026-4.08.015-6.116.015l-20.525-.022c-1.066 0-2.139.076-3.203-.027Zm-21.4 36.773c-.044 4.056 2.166 4.701 2.293 5.215l-.03.047c1.127 1.122 5.26.91 6.817.91l38.476.007c3.222.006 7.773.717 9.966-2.297.404-.474.689-1.075.879-1.664.137-.34.198-.69.25-1.051-.133-.012-.14-.006-.235-.097.043-.384.046-.773.073-1.158-2.382.047-4.658.132-7.066.132h-47.25c-1 0-3.337-.164-4.174-.044Zm-.749-.674c.154 2.322.766 4.803 3.011 5.936l.03-.047c-.126-.514-2.336-1.16-2.293-5.215.837-.12 3.175.045 4.175.045h47.249c2.408 0 4.684-.086 7.066-.133.013.09.025.132.082.203l.063-.011c.087-.136.116-.278.153-.432l.019-.344c-.55-.057-1.123.055-1.68.046-2.31-.04-4.623-.002-6.935-.002l-48.933-.035c-.532 0-1.562-.056-2.007-.011Z" fill="#454965"/><path d="M69.433 55.025c.014.09.025.132.082.203l.063-.011c.087-.136.116-.278.153-.432.055.478-.065 1.02-.136 1.495-.133-.012-.14-.006-.235-.097.043-.384.047-.773.073-1.158Z" fill="#fff"/><path d="M10.944 55.113c.837-.12 3.174.045 4.174.044h47.25c2.408 0 4.684-.085 7.065-.132-.026.385-.03.774-.072 1.158.095.091.102.085.234.097-.051.361-.112.71-.25 1.05-.19.59-.475 1.191-.878 1.665-2.193 3.014-6.745 2.303-9.966 2.297l-38.476-.008c-1.557 0-5.69.213-6.818-.909l.03-.047c-.126-.514-2.336-1.16-2.293-5.215Zm35.17 2.203c.54.229.472.977-.092 1.158-1.884.604-10.926-.226-11.601.239l-.008.063c-.033.266-.4.144-.705.132.276.705 9.731.488 11.282.416.982-.045 1.667-.108 2.155-1.076a2.918 2.918 0 0 0-.568-.875c-.149-.054-.311-.14-.464-.057Z" fill="#47CC54"/><path d="M69.36 56.183c.095.091.102.085.235.097-.052.361-.113.71-.25 1.05-.19.59-.476 1.191-.88 1.665a.603.603 0 0 0-.187.118l-.02-.023c.376-.633.622-1.264.874-1.951.086-.317.132-.643.228-.956Z" fill="#78F0AF"/><path d="m64.71 60.41.127-.006c-.458.192-2.158.158-2.332.276.261.148.67.029.968.1-.265.15-3.424.064-3.85-.01.788.096.829-.029 1.44-.072l.047-.003.026-.06c-2.078-.242-5.57-.13-7.68-.069-1.011-.048-2.033-.009-3.048-.036 2.721.071 5.45-.003 8.172.006l3.082.012c1.04.004 2.017.031 3.049-.138Z" fill="#1D9B38"/><path d="M46.112 57.316c.542.229.473.977-.09 1.158-1.884.604-10.926-.226-11.602.239l-.007.063c-.034.266-.402.144-.706.132-.485-.28-.399-.83-.407-1.322.663-.296 1.327-.235 2.031-.233l8.483-.001c.63 0 1.73.112 2.298-.036ZM39.45 19.236c3.401-.39 3.86 4.015.837 4.584-2.86.676-4.041-3.78-.837-4.584Zm.258 1.235c-.75.288-.96.854-.766 1.61.34.41.69.568 1.206.456 1.277-.408.931-2.173-.44-2.066Z" fill="#454965"/></svg>