<svg width="80" height="80" fill="none" xmlns="http://www.w3.org/2000/svg"><path d="M39.948 8.144c1.116-.007.845 1.305.841 2.037l.002 2.604.254-.002c6.603.004 13.726 2.722 18.42 7.416 4.99 4.99 8.07 12.109 8.063 19.19 1.26-.03 2.8-.079 4.045.016.208.259.276.49.35.805-.116.275-.212.417-.452.6-1.127.12-2.716-.023-3.923.014-.076 1.239-.108 2.463-.289 3.695-1.518 10.356-9.278 19.74-19.725 21.924-2.254.471-4.474.578-6.752.78.014 1.422.024 2.849.014 4.27-.145.285-.306.39-.597.51-1.441-.024-.904-3.656-.828-4.785-7.536-.475-12.97-1.703-18.706-7.325-5.15-5.049-7.98-11.924-8.046-19.09-1.014-.03-3.291.158-4.117-.147-.177-.206-.251-.4-.33-.654.33-.878 1.078-.631 1.858-.63.852.003 1.703.004 2.554.02.056-1.175.109-2.333.278-3.498C14.846 22.251 25.52 13.031 39.319 12.78c.034-1.347-.556-4.16.63-4.635Zm-1.757 6.072c-7.593.336-14.474 3.802-19.053 9.89-3.45 4.59-4.808 9.627-5.225 15.268l2.508-.003c.897-.008 2.962-.192 1.967 1.255-.619.325-3.584.197-4.45.171.206 7.324 3.115 13.595 8.366 18.565 4.623 4.374 10.653 6.394 16.96 6.346.086-1.115-.062-2.957.125-3.923.315-.421.662-.643 1.113-.256.546.468.287 3.446.285 4.202.36-.006.72-.006 1.08-.023 13.878-.59 23.841-10.974 24.275-24.916l-2.874.019c-.465.002-.959.035-1.42-.006-.635-.394-.697-.936-.096-1.403 1.186-.236 3.006.08 4.383-.076-.19-9.138-5.187-17.835-13.283-22.172-3.355-1.798-8.244-3.122-12.061-2.962 0 1.015.516 4.193-.763 4.175-1.085-.014-.697-3.561-.675-4.197-.387.015-.775.025-1.162.046Z" fill="#454965"/><path d="M39.97 23.337c.555.063.636.625.845.668.633.131 1.348.12 2.082.274 7.504 1.575 12.48 7.5 12.771 15.077.856.231 1.367.231.904 1.264-.29.12-.58.19-.887.257-.302 7.45-6.07 13.726-13.459 14.71-.46.062-.926.087-1.38.184-.215.533-.329.638-.916.801-.384-.092-.546-.416-.717-.736-4.764-.4-9.165-2.742-11.999-6.616-1.507-2.06-3.286-5.69-2.869-8.37-.175-.002-.35.002-.526.005-.975-.569-.526-1.619.475-1.646-.127-2.95 1.444-6.779 3.274-9.048 3.045-3.775 6.959-5.749 11.751-6.256l.037-.05c.18-.25.343-.383.614-.518Zm.81 2.032c-.029.73.035 1.506-.1 2.223-.128.159-.257.348-.474.38-1.14.171-.885-1.927-.924-2.582-4.044.442-7.703 2.076-10.309 5.33-1.888 2.358-3.336 5.537-3.284 8.62.834.008 1.643-.107 2.47.063 1.675 1.535-2.066 1.357-2.505 1.384.443 7.306 6.334 12.986 13.555 13.541l.075.01c.199-.59-.196-1.634.137-2.386 1.645-1.425 1.348 1.835 1.382 2.458.967-.207 1.919-.338 2.871-.62 5.127-1.521 9.471-5.563 10.384-10.953.112-.665.128-1.344.229-2.009-.706.024-1.778.147-2.331-.373-1.235-1.159 1.931-1.17 2.355-1.167-.096-1.092-.195-2.173-.468-3.237-1.39-5.412-6.233-9.257-11.56-10.399-.474-.102-1.021-.271-1.502-.284Z" fill="#454965"/><path d="M39.446 31.452c4.336-.423 8.385 3.134 8.86 7.391.514 4.607-3.011 8.67-7.554 9.164-4.349.36-8.532-2.775-8.976-7.167-.473-4.678 2.962-8.955 7.67-9.388ZM35.169 44.46c-.142-.338-.382-.655-.56-.977-3.08-5.565 3.644-12.557 9.082-9.242.351.215.653.49.987.727l.096-.02c-6.593-6.307-15.495 3.327-9.605 9.512Z" fill="#454965"/><path d="M35.17 44.459c-.142-.338-.382-.654-.56-.977-3.08-5.564 3.644-12.557 9.082-9.242.35.215.653.49.987.727l.096-.02c4.441 3.909 1.361 11.346-4.314 11.674-1.346.078-4.818-.811-5.291-2.162Z" fill="#47CC54"/></svg>