<svg width="80" height="80" fill="none" xmlns="http://www.w3.org/2000/svg"><path d="M59.186 30.082c5.62-.546 8.586 5.18 5.91 9.774-.92 1.58-3.05 3.872-4.89 4.36-1.233.17-2.344-.476-3.299-1.191-5.537-4.148-4.521-11.998 2.28-12.943Z" fill="#454965"/><path d="M59.455 31.413c3.694-.312 6.4 3.496 4.903 6.847-.73 1.633-2.592 3.943-4.319 4.595-2.433.248-5.18-3.713-5.4-5.964-.276-2.803 2.131-5.206 4.816-5.478Z" fill="#fff"/><path d="M19.767 30.124c5.408-.527 9.034 6.435 5.13 11.071-1.077 1.28-2.828 3.058-4.555 3.207-3.306.129-6.554-4.069-6.758-7.076-.257-3.763 2.396-6.951 6.183-7.202Z" fill="#454965"/><path d="M15.027 37.145c-.598-4.784 5.976-7.706 9.125-3.557l-.076.058c-.135-.038-.719-.582-.913-.713-3.124-2.087-6.995-.093-7.613 3.552-.08-.13-.05-.196-.053-.34l-.128.087c-.431-.366-.235.682-.341.913Z" fill="url(#a)"/><path d="M15.55 36.485c.617-3.645 4.49-5.64 7.612-3.552.195.13.779.675.914.713l.076-.058c2.411 3.051.393 6.466-2.244 8.544-2.073 1.634-4.13.603-5.373-1.51-.697-.97-1.497-2.24-1.508-3.477.107-.23-.09-1.28.342-.913l.127-.087c.005.144-.025.21.054.34Z" fill="#47CC54"/><path d="M15.027 37.145c.107-.23-.09-1.28.342-.913l.127-.087c.005.144-.025.21.054.34-.208 2.348.976 3.412.985 4.137-.697-.97-1.497-2.24-1.508-3.477Z" fill="#fff"/><path d="M39.241 27.074c4.333-.448 9.012 2.52 9.53 7.04.567 4.962-3.32 9.11-8.096 9.637-2.613.158-4.745-.537-6.735-2.24-5.934-5.079-2.302-13.858 5.301-14.437Z" fill="#454965"/><path d="M39.637 28.404c3.765-.265 7.658 2.439 7.843 6.383.184 3.919-3.366 7.473-7.226 7.64-5.979.288-10.521-6.75-6.2-11.51 1.43-1.576 3.482-2.417 5.583-2.513Z" fill="#fff"/><path d="M25.24 44.932c.408-.025.714.312.744.712.044.577-.83 1.017-1.22 1.29-3.474 2.423-6.53 2.524-9.763-.512-2.158.582-4.164 1.733-4.724 4.033-.323 1.322-.23 5.637-.15 7.258l3.46.003c.03-.837-.332-4.24.638-4.243.946-.003.787.99.787 1.608l-.006 2.633h7.357c1.503 0 3.01.028 4.512-.023.189-2.752-.583-6.5 1.175-8.699 1.249-1.562 3.233-2.55 5.033-3.336 1.569-.686 1.852-1.042 2.99.274 4.194 4.846 8.262-.736 9.25-.786.454-.023.958.203 1.375.362 4.265 1.633 6.474 3.482 6.47 8.084l-.007 2.573c-.003.509-.03 1.02 0 1.528 3.872.185 7.864-.09 11.778.046-.017-.821-.333-4.085.531-4.208 1.063-.152.843 1.152.84 1.8-.003.795-.014 1.59.015 2.383 1.056.06 2.11-.04 3.168.05.125-1.902.232-6.215-.304-7.81-.74-2.2-2.748-2.573-4.58-3.482-.255.177-.496.38-.741.571-4.165 3.016-6.272 1.574-10.166-.935-.42-2.037 1.483-.717 2.2-.209 5.434 3.86 7.024-1.21 8.933-.763 1.736.406 4.323 1.896 5.212 3.4.881 1.488.881 3.051.88 4.728v2.662c0 .753.114 2.102-.062 2.776-.558.652-1.463.363-2.227.36H57.389c-1.407.001-2.82.025-4.226-.018-.047.914.177 3.728-.165 4.344-.311.563-1.572.317-2.108.317L29.913 63.7c-.547 0-2.126.167-2.59-.085-.673-.366-.393-3.75-.465-4.593l-15.95.038c-1.808.007-2.15.426-2.14-1.78l.004-4.334c.001-1.922.111-3.703 1.392-5.262.974-1.186 3.482-2.546 5.04-2.697l.059.026c.483.21.883.608 1.291.935 2.522 2.018 4.582 1.835 7.225-.055.48-.343.91-.735 1.46-.962Z" fill="#454965"/><path d="M28.526 62.296c-.3-.051-.218-2.343-.218-2.72V53.84c-.004-3.773 1.033-4.972 4.677-6.556.284-.124 1.656-.712 1.849-.636.017.236.053.484-.08.694-.475-.13-2.512 1.006-3.016 1.294-3.267 1.866-2.876 3.347-2.874 6.663l-.002 5.207c-.003.742.363 1.785-.336 1.79Z" fill="#fff"/><path d="M34.834 46.648c.745 1.182 2.466 2.151 3.802 2.448 2.783.62 5.004-.634 6.895-2.516 1.011.462 3.417 1.334 4.131 2.112.5.324.945.783 1.276 1.276.781 1.084.788 2.104.788 3.382l-.002 5.755c0 1.055.015 2.093-.1 3.143-.837.051-2.792.145-3.609.047l-.518-.011c-.16-1.351-.078-2.757-.097-4.118-.02-.527.018-1.069.047-1.596-.08-.915-1.47-.562-1.583.3-.197 1.496-.007 3.833-.043 5.42l-9.88-.003c-.415.004-.843.037-1.257-.003l-.438-.026c-.117-1.55-.072-3.273-.035-4.831-.023-.323-.03-.648-.045-.972-.286-.565-1.33-.43-1.49.155-.097.35.006.976.01 1.36l.007 2.485c.007.611.038 1.223.026 1.835-.755.052-3.516.1-4.193.006.699-.005.333-1.048.336-1.79l.003-5.207c-.003-3.316-.394-4.797 2.873-6.663.504-.288 2.541-1.424 3.015-1.294.135-.21.098-.458.081-.694Z" fill="#47CC54"/><path d="M49.662 48.692a4.6 4.6 0 0 1 1.276 1.276l-.08.058c-.227-.083-1.13-.919-1.43-1.14.307.058.594.469.874.456-.025-.188-.519-.428-.64-.65Z" fill="#A4E799"/><path d="M34.166 56.455c.198-.45.364-.233.356.123.066.394.067.793.113 1.19.077 1.11.213 3.41.049 4.516l-.438-.026c-.117-1.55-.072-3.273-.035-4.83-.023-.324-.03-.65-.045-.973Z" fill="#fff"/><path d="M34.166 56.455c.198-.45.364-.233.356.123h-.057c-.105.271.011.593-.126.848l-.028-.759c-.063.253-.006.508-.1.76-.023-.323-.03-.648-.045-.972ZM47.447 56.57c.475-.954.65.594.57 1.048.055.901.166 3.816-.002 4.678l-.517-.012c-.16-1.351-.08-2.757-.098-4.117-.02-.528.018-1.07.047-1.597Z" fill="#CDF3D0"/><path d="M47.447 56.57c.475-.954.65.594.57 1.048-.3-.323.424-.881-.563-.613.038.364.062.808-.054 1.161-.02-.527.018-1.069.047-1.596Z" fill="#A4E799"/><path d="M34.835 46.648c.745 1.182 2.466 2.151 3.802 2.448 2.782.62 5.004-.634 6.895-2.516 1.01.462 3.416 1.334 4.131 2.112.12.222.615.462.64.65-.28.013-.568-.398-.874-.457-1.083-.713-2.288-1.197-3.543-1.51-.396.276-.732.639-1.118.93-3.163 2.381-6.029 1.89-9.106-.247-.308-.214-.661-.433-.908-.716.134-.21.098-.458.08-.694Z" fill="#CDF3D0"/><defs><linearGradient id="a" x1="21.19" y1="36.461" x2="16.629" y2="32.962" gradientUnits="userSpaceOnUse"><stop stop-color="#C0F1E2"/><stop offset="1" stop-color="#fff"/></linearGradient></defs></svg>