<svg width="32" height="32" viewBox="0 0 32 32" fill="none" xmlns="http://www.w3.org/2000/svg">
<path d="M17.1354 11.6195C18.0132 11.6195 18.855 11.9682 19.4757 12.5888C20.0963 13.2095 20.445 14.0513 20.445 14.9291C20.445 15.2217 20.5612 15.5023 20.7681 15.7092C20.975 15.916 21.2556 16.0323 21.5482 16.0323C21.8408 16.0323 22.1214 15.916 22.3283 15.7092C22.5352 15.5023 22.6514 15.2217 22.6514 14.9291C22.6514 13.4661 22.0703 12.0631 21.0358 11.0287C20.0014 9.99423 18.5984 9.41309 17.1354 9.41309C16.8428 9.41309 16.5622 9.52932 16.3553 9.73621C16.1485 9.9431 16.0322 10.2237 16.0322 10.5163C16.0322 10.8089 16.1485 11.0895 16.3553 11.2964C16.5622 11.5033 16.8428 11.6195 17.1354 11.6195V11.6195Z" fill="#C3C4CE"/>
<path d="M17.1352 7.2064C19.1833 7.2064 21.1475 8.02 22.5957 9.46823C24.044 10.9165 24.8576 12.8807 24.8576 14.9288C24.8576 15.2214 24.9738 15.502 25.1807 15.7089C25.3876 15.9158 25.6682 16.032 25.9608 16.032C26.2534 16.032 26.534 15.9158 26.7408 15.7089C26.9477 15.502 27.064 15.2214 27.064 14.9288C27.064 12.2955 26.0179 9.77008 24.1559 7.90807C22.2939 6.04607 19.7685 5 17.1352 5C16.8426 5 16.562 5.11623 16.3551 5.32312C16.1482 5.53001 16.032 5.81061 16.032 6.1032C16.032 6.39578 16.1482 6.67639 16.3551 6.88328C16.562 7.09017 16.8426 7.2064 17.1352 7.2064ZM26.7882 20.3455C26.7275 20.1684 26.6227 20.0096 26.4838 19.8842C26.3448 19.7587 26.1762 19.6707 25.9939 19.6284L19.3747 18.117C19.195 18.0763 19.008 18.0812 18.8307 18.1313C18.6534 18.1814 18.4915 18.2751 18.3597 18.4039C18.2053 18.5473 18.1943 18.5583 17.4772 19.9263C15.0978 18.8299 13.1912 16.9155 12.1046 14.5316C13.5057 13.8256 13.5167 13.8256 13.6601 13.6601C13.7889 13.5283 13.8826 13.3664 13.9327 13.1891C13.9828 13.0118 13.9877 12.8248 13.9469 12.6452L12.4356 6.1032C12.3932 5.92084 12.3052 5.75224 12.1798 5.61328C12.0543 5.47432 11.8956 5.36957 11.7185 5.3089C11.4608 5.21688 11.1948 5.15037 10.9242 5.11032C10.6453 5.04567 10.3608 5.00871 10.0747 5C8.72881 5 7.43804 5.53466 6.48635 6.48635C5.53466 7.43804 5 8.72881 5 10.0747C5.00584 14.5787 6.79765 18.8966 9.98248 22.0815C13.1673 25.2663 17.4852 27.0581 21.9893 27.064C22.6557 27.064 23.3156 26.9327 23.9313 26.6777C24.547 26.4226 25.1064 26.0488 25.5776 25.5776C26.0488 25.1064 26.4226 24.547 26.6777 23.9313C26.9327 23.3156 27.064 22.6557 27.064 21.9893C27.0643 21.7085 27.0422 21.4281 26.9978 21.1508C26.9514 20.8768 26.8813 20.6073 26.7882 20.3455ZM21.9893 24.8576C18.0695 24.8546 14.3111 23.2962 11.5394 20.5245C8.76773 17.7529 7.20932 13.9945 7.2064 10.0747C7.2093 9.31488 7.51243 8.587 8.04972 8.04972C8.587 7.51243 9.31488 7.2093 10.0747 7.2064H10.4388L11.6192 12.3252L11.0235 12.6341C10.0747 13.1306 9.32454 13.5277 9.72169 14.3882C10.3684 16.2191 11.4148 17.8829 12.785 19.2587C14.1551 20.6346 15.8145 21.6879 17.6427 22.3423C18.5693 22.7174 18.9334 22.0223 19.4298 21.0626L19.7498 20.4558L24.8576 21.6252V21.9893C24.8547 22.7491 24.5515 23.477 24.0142 24.0142C23.477 24.5515 22.7491 24.8547 21.9893 24.8576Z" fill="#C3C4CE"/>
</svg>
