<svg xmlns="http://www.w3.org/2000/svg"><style>:root svg:not(:target){display:none}</style><svg viewBox="0 0 28 12" id="icon" fill="none" xmlns="http://www.w3.org/2000/svg"><path style="fill:var(--feature-indicator-border-color)" fill-rule="evenodd" clip-rule="evenodd" d="M5.793 0a5.62 5.62 0 0 0-2.217.457 5.784 5.784 0 0 0-1.88 1.3A6.019 6.019 0 0 0 .442 3.704a6.186 6.186 0 0 0 0 4.592c.291.728.718 1.39 1.256 1.947.538.557 1.176.999 1.88 1.3A5.62 5.62 0 0 0 5.792 12h16.414c1.536 0 3.01-.632 4.096-1.757A6.11 6.11 0 0 0 28 6a6.11 6.11 0 0 0-1.697-4.243A5.694 5.694 0 0 0 22.207 0H5.793Zm0 1c-1.28 0-2.508.527-3.414 1.464A5.092 5.092 0 0 0 .966 6c0 1.326.508 2.598 1.413 3.536A4.745 4.745 0 0 0 5.793 11h16.414c1.28 0 2.508-.527 3.413-1.464A5.092 5.092 0 0 0 27.035 6a5.092 5.092 0 0 0-1.415-3.536A4.744 4.744 0 0 0 22.207 1H5.793Z"/><path style="fill:var(--feature-indicator-part-1-color)" d="M3 6a3 3 0 0 1 3-3h2.94a.06.06 0 0 1 .06.06v5.88a.06.06 0 0 1-.06.06H6a3 3 0 0 1-3-3Z"/><path style="fill:var(--feature-indicator-part-2-color)" d="M16 3h-4a1 1 0 0 0-1 1v4a1 1 0 0 0 1 1h4a1 1 0 0 0 1-1V4a1 1 0 0 0-1-1Z"/><path style="fill:var(--feature-indicator-part-3-color)" d="M25 6a3 3 0 0 1-3 3h-2.94a.06.06 0 0 1-.06-.06V3.06a.06.06 0 0 1 .06-.06H22a3 3 0 0 1 3 3Z"/></svg></svg>