<svg xmlns="http://www.w3.org/2000/svg"><style>:root svg:not(:target){display:none}</style><svg viewBox="0 0 32 32" fill="none" id="location"><path d="M23.427 13.713c0 4.608-7.23 12.534-7.714 12.534 0 0-7.713-7.674-7.713-12.534a7.713 7.713 0 0 1 15.427 0Z" stroke="#7E819B" stroke-width="3"/><circle cx="15.713" cy="13.216" r="1.435" fill="#7E819B"/></svg><svg viewBox="0 0 32 32" fill="none" id="phone"><path d="M17.135 11.62a3.31 3.31 0 0 1 3.31 3.31 1.103 1.103 0 1 0 2.206 0 5.516 5.516 0 0 0-5.516-5.517 1.103 1.103 0 1 0 0 2.207Z" fill="#C3C4CE"/><path d="M17.135 7.206a7.722 7.722 0 0 1 7.723 7.723 1.103 1.103 0 1 0 2.206 0A9.929 9.929 0 0 0 17.135 5a1.103 1.103 0 1 0 0 2.206Zm9.653 13.14a1.104 1.104 0 0 0-.794-.718l-6.62-1.511a1.104 1.104 0 0 0-1.014.287c-.155.143-.166.154-.883 1.522a10.932 10.932 0 0 1-5.372-5.394c1.4-.706 1.412-.706 1.555-.872a1.103 1.103 0 0 0 .287-1.015l-1.511-6.542a1.105 1.105 0 0 0-.717-.794 4.183 4.183 0 0 0-.795-.199 4.347 4.347 0 0 0-.85-.11A5.075 5.075 0 0 0 5 10.075a17.012 17.012 0 0 0 16.99 16.989 5.075 5.075 0 0 0 5.074-5.075 4.791 4.791 0 0 0-.276-1.644Zm-4.799 4.512A14.794 14.794 0 0 1 7.206 10.075a2.88 2.88 0 0 1 2.869-2.869h.364l1.18 5.12-.595.308c-.95.497-1.7.894-1.302 1.754a13.071 13.071 0 0 0 7.92 7.954c.927.375 1.291-.32 1.788-1.28l.32-.606 5.108 1.17v.363a2.879 2.879 0 0 1-2.869 2.869Z" fill="#C3C4CE"/></svg><svg viewBox="0 0 28 16" fill="none" id="quotes"><path d="M25.902 2 15.561 14.638M12.342 2 2 14.638" stroke="#454965" stroke-width="4"/></svg><svg viewBox="0 0 24 24" fill="none" id="controls_arrow-without-tail"><path d="M12 19c-.305 0-.61-.12-.842-.36l-7.31-7.543a1.256 1.256 0 0 1 0-1.737 1.165 1.165 0 0 1 1.684 0L12 16.034l6.468-6.674a1.165 1.165 0 0 1 1.683 0c.465.48.465 1.258 0 1.737l-7.31 7.544c-.232.24-.536.359-.841.359Z" fill="#47CC54"/></svg><svg viewBox="0 0 32 32" fill="none" id="controls_arrow"><path d="M17.334 28V4c0-.8-.534-1.333-1.334-1.333S14.667 3.2 14.667 4v24c0 .8.533 1.333 1.333 1.333.8 0 1.334-.533 1.334-1.333Z" fill="#47CC54"/><path d="M24 21.333c0-.4-.133-.666-.4-.933a1.289 1.289 0 0 0-1.867 0L16 26.133 10.267 20.4a1.289 1.289 0 0 0-1.867 0 1.289 1.289 0 0 0 0 1.867l6.667 6.666a1.289 1.289 0 0 0 1.866 0l6.667-6.666c.267-.267.4-.534.4-.934Z" fill="#47CC54"/></svg><svg viewBox="0 0 16 16" fill="none" id="controls_checkmark"><path d="m6.663 12.416-.707.707.707.707.707-.707-.707-.707ZM2 9.167l3.956 3.956L7.37 11.71 3.414 7.753 2 9.167Zm5.37 3.956 7.46-7.46-1.414-1.414-7.46 7.46 1.414 1.414Z" fill="#47CC54"/></svg><svg viewBox="0 0 32 32" fill="none" id="controls_cross"><path fill-rule="evenodd" clip-rule="evenodd" d="M28.099 5.623 4.29 29.432l-1.623-1.624L26.475 4 28.1 5.623Z" fill="#7479A6"/><path fill-rule="evenodd" clip-rule="evenodd" d="m3.28 5.623 23.81 23.809 1.623-1.624L4.904 4 3.281 5.623Z" fill="#7479A6"/></svg><svg viewBox="0 0 24 24" fill="none" id="controls_double-arrow-without-tail"><path d="M11.461 6.506A1.469 1.469 0 0 1 13.54 4.43l6.53 6.531a1.47 1.47 0 0 1 0 2.077l-6.53 6.532a1.468 1.468 0 0 1-2.078-2.077l5.493-5.493-5.493-5.493ZM4.931 19.57a1.469 1.469 0 0 0 2.076 0l6.532-6.531a1.469 1.469 0 0 0 0-2.078L7.007 4.43A1.469 1.469 0 0 0 4.93 6.505L10.423 12 4.93 17.492a1.469 1.469 0 0 0 0 2.077Z" fill="#fff"/></svg><svg viewBox="0 0 16 16" fill="none" id="controls_paper-clip"><path fill-rule="evenodd" clip-rule="evenodd" d="M5.717 15.25c-1.242 0-2.423-.5-3.324-1.406-1.791-1.803-1.865-4.66-.164-6.37L7.769 1.9C8.344 1.32 9.122 1 9.958 1c.895 0 1.746.36 2.395 1.012 1.29 1.298 1.34 3.361.11 4.599l-5.547 5.571c-.36.363-.843.561-1.362.561a2.053 2.053 0 0 1-1.463-.615c-.79-.796-.814-2.064-.054-2.83l5.118-5.14a.75.75 0 1 1 1.063 1.057l-5.118 5.142c-.18.182-.155.502.056.713a.57.57 0 0 0 .398.173c.082 0 .2-.02.298-.118L11.4 5.553c.65-.654.601-1.768-.11-2.484-.68-.684-1.834-.738-2.458-.11L3.292 8.53c-1.12 1.127-1.047 3.037.165 4.255.617.622 1.42.964 2.26.964.75 0 1.447-.284 1.958-.798l5.54-5.572a.75.75 0 1 1 1.064 1.057l-5.54 5.572a4.225 4.225 0 0 1-3.022 1.241" fill="#454965"/></svg><svg viewBox="0 0 32 32" fill="none" id="socials_facebook"><path d="M10.447 2.5c-7.37 0-7.947.577-7.947 7.947v11.106c0 7.37.577 7.947 7.947 7.947h11.106c7.37 0 7.947-.577 7.947-7.947V10.447c0-7.37-.577-7.947-7.947-7.947H10.447ZM8.688 5.2h14.624c3.235 0 3.488.253 3.488 3.488v14.624c0 3.235-.254 3.488-3.488 3.488h-2.845v-8.074h3.197l.503-3.592h-3.7s-.006-2.104 0-2.629c.01-1.027.868-1.546 1.605-1.539.738.009 2.264.003 2.264.003V7.657s-1.321-.171-2.708-.185c-1.165-.013-2.451.303-3.49 1.35-1.056 1.063-1.223 2.648-1.243 4.585-.006.56 0 1.726 0 1.726h-3.128v3.592h3.128V26.8H8.688c-3.235 0-3.488-.254-3.488-3.488V8.688c0-3.235.253-3.488 3.488-3.488Z" fill="#454965"/></svg><svg viewBox="0 0 32 32" fill="none" id="socials_instagram"><rect x="4" y="4" width="24" height="24" rx="6" stroke="#454965" stroke-width="3"/><circle cx="16" cy="16" r="5" stroke="#454965" stroke-width="3"/><circle cx="22.5" cy="9.5" r="1.5" fill="#454965"/></svg><svg viewBox="0 0 32 32" id="socials_linkedin"><path d="M8.643 4A2.641 2.641 0 0 0 6 6.64C6 8.1 7.183 9.31 8.64 9.31c1.459 0 2.643-1.21 2.643-2.668A2.64 2.64 0 0 0 8.643 4zm12.892 7c-2.219 0-3.488 1.16-4.098 2.314h-.064v-2.003H13V26h4.557v-7.271c0-1.916.144-3.768 2.515-3.768 2.337 0 2.371 2.185 2.371 3.889V26H27v-8.068C27 13.984 26.151 11 21.535 11zm-15.172.31V26h4.56V11.31h-4.56z" fill="#454965"/></svg><svg viewBox="0 0 32 32" fill="none" id="socials_telegram"><path d="M27.84 6 5 14.987l6.622 2.839 2.027 7.095 2.5-4.595 7.434 5.811L27.84 6Z" stroke="#454965" stroke-width="3" stroke-linejoin="round"/></svg></svg>