<svg xmlns="http://www.w3.org/2000/svg"><style>:root svg:not(:target){display:none}</style><svg viewBox="0 0 32 32" fill="none" id="location"><path d="M23.427 13.713c0 4.608-7.23 12.534-7.714 12.534 0 0-7.713-7.674-7.713-12.534a7.713 7.713 0 0 1 15.427 0Z" stroke="#7E819B" stroke-width="3"/><circle cx="15.713" cy="13.216" r="1.435" fill="#7E819B"/></svg><svg viewBox="0 0 32 32" fill="none" id="phone"><path d="M17.135 11.62a3.31 3.31 0 0 1 3.31 3.31 1.103 1.103 0 1 0 2.206 0 5.516 5.516 0 0 0-5.516-5.517 1.103 1.103 0 1 0 0 2.207Z" fill="#C3C4CE"/><path d="M17.135 7.206a7.722 7.722 0 0 1 7.723 7.723 1.103 1.103 0 1 0 2.206 0A9.929 9.929 0 0 0 17.135 5a1.103 1.103 0 1 0 0 2.206Zm9.653 13.14a1.104 1.104 0 0 0-.794-.718l-6.62-1.511a1.104 1.104 0 0 0-1.014.287c-.155.143-.166.154-.883 1.522a10.932 10.932 0 0 1-5.372-5.394c1.4-.706 1.412-.706 1.555-.872a1.103 1.103 0 0 0 .287-1.015l-1.511-6.542a1.105 1.105 0 0 0-.717-.794 4.183 4.183 0 0 0-.795-.199 4.347 4.347 0 0 0-.85-.11A5.075 5.075 0 0 0 5 10.075a17.012 17.012 0 0 0 16.99 16.989 5.075 5.075 0 0 0 5.074-5.075 4.791 4.791 0 0 0-.276-1.644Zm-4.799 4.512A14.794 14.794 0 0 1 7.206 10.075a2.88 2.88 0 0 1 2.869-2.869h.364l1.18 5.12-.595.308c-.95.497-1.7.894-1.302 1.754a13.071 13.071 0 0 0 7.92 7.954c.927.375 1.291-.32 1.788-1.28l.32-.606 5.108 1.17v.363a2.879 2.879 0 0 1-2.869 2.869Z" fill="#C3C4CE"/></svg><svg viewBox="0 0 28 16" fill="none" id="quotes"><path d="M25.902 2 15.561 14.638M12.342 2 2 14.638" stroke="#454965" stroke-width="4"/></svg><svg viewBox="0 0 32 32" fill="none" id="socials_instagram"><rect x="4" y="4" width="24" height="24" rx="6" stroke="#454965" stroke-width="3"/><circle cx="16" cy="16" r="5" stroke="#454965" stroke-width="3"/><circle cx="22.5" cy="9.5" r="1.5" fill="#454965"/></svg><svg viewBox="0 0 32 32" fill="none" id="socials_telegram"><path d="M27.84 6 5 14.987l6.622 2.839 2.027 7.095 2.5-4.595 7.434 5.811L27.84 6Z" stroke="#454965" stroke-width="3" stroke-linejoin="round"/></svg></svg>