<svg xmlns="http://www.w3.org/2000/svg"><style>:root svg:not(:target){display:none}</style><svg viewBox="0 0 174 46" id="logo" style="fill:var(--logo-color, #454965)" xmlns="http://www.w3.org/2000/svg"><path d="M134.866 35.623v-15.96c0-6.175-2.258-9.84-7.489-9.84-3.297 0-5.536 1.732-7.489 3.574l2.007-8.92L119.888 0l-6.199.018V23.4c-.287 1.318-.681 2.564-1.29 3.611-.609 1.03-1.415 1.824-2.436 2.383a7.743 7.743 0 0 1-.842.362c-.251.09-.484.162-.735.216-.251.054-.484.127-.753.163-.053.018-.125.018-.179.036-.86.108-1.845.126-3.027-.018-2.795-.632-4.748-3.413-4.748-7.475 0-4.586 2.508-7.62 6.235-7.62 1.343 0 2.472.578 3.672 1.625l3.028-4.152c-1.774-1.535-4.067-2.709-7.059-2.709-6.575 0-12.38 4.73-12.38 12.856 0 .415.018.83.054 1.227l-.125.325-.018.037c-.645 1.877-2.437 3.936-4.891 5.073-2.043.957-4.461 1.21-6.952.217-1.54-.993-2.597-2.69-2.902-5.074h13.957c.179-.578.304-1.751.304-2.979 0-6.735-3.458-11.682-10.14-11.682a9.32 9.32 0 0 0-5.447 1.734l-2.418-1.21c-.735-.307-1.523-.524-2.867-.524-2.508 0-5.106 1.752-6.88 4.947h-.125l-.484-4.333h-13.92a11.518 11.518 0 0 0-3.637-.614c-5.16 0-9.782 3.106-9.782 8.847 0 2.89 1.558 5.2 3.242 6.428v.18c-1.469 1.048-2.723 2.763-2.723 4.587 0 2.004.95 3.286 2.204 4.116v.217c-2.204 1.264-3.458 3.015-3.458 5.074 0 4.333 4.425 6.301 10.14 6.301 8.098 0 13.204-3.756 13.204-8.703 0-.415-.053-.812-.125-1.173h6.038V20.33c1.343-3.54 3.637-4.821 5.536-4.821 1.003 0 1.684.126 2.562.397-.878 1.896-1.38 4.17-1.38 6.789 0 5.127 2.132 8.92 5.41 11.014.019.018.036.018.072.036 1.882 1.173 4.139 1.823 6.611 1.823.377 0 .753-.018 1.129-.054a14.384 14.384 0 0 0 5.052-1.282 15.376 15.376 0 0 0 4.91-3.61c2.113 3.213 5.589 4.964 9.674 4.964h.143c2.598.127 4.873-.252 6.79-1.155.663-.307 1.272-.704 1.828-1.102v2.366h6.36V18.019c1.666-1.66 3.063-2.69 4.963-2.69 2.382 0 3.422 1.318 3.422 5.128v15.166h6.36ZM46.684 14.192c2.167 0 3.816 1.625 3.816 4.46 0 2.924-1.684 4.55-3.816 4.55-2.114 0-3.816-1.626-3.816-4.55.017-2.835 1.666-4.46 3.816-4.46Zm.573 27.3c-3.512 0-5.751-1.174-5.751-3.232 0-1.011.484-1.968 1.559-2.853.86.217 1.899.343 3.386.343h2.938c2.598 0 4.031.433 4.031 2.185-.018 1.95-2.526 3.556-6.163 3.556Zm3.207-10.761h-4.12c-2.867 0-3.817-.705-3.817-2.005 0-1.01.394-1.534 1.04-2.094 1.038.343 2.167.578 3.117.578 5.195 0 9.352-2.799 9.352-8.306 0-1.535-.484-2.889-1.075-3.72h4.102v19.338c-1.056-2.618-3.995-3.791-8.6-3.791ZM82.55 14.804c3.118 0 4.587 2.095 4.587 5.381H78.25c.484-3.539 1.738-5.38 4.3-5.38ZM168.243 33.312v2.348h5.536V15.438h-1.828a8.05 8.05 0 0 0-.716-1.626c-1.702-2.925-4.372-5.127-9.406-5.236-8.546-.198-14.387 4.532-18.221 9.516a43.105 43.105 0 0 0-1.523 2.148v-6.843l2.007-8.92-2.025-4.459h-6.27v35.605h6.27v-4.567c.09-.181.162-.362.251-.542.735-1.607 1.684-3.575 2.903-5.616l5.41 10.744h5.482v-2.275l-.107-.163c1.254 1.517 3.135 2.474 5.5 2.474 2.741 0 4.461-.524 6.557-2.347h.18v-.019Zm-13.849-4.856c0 1.227.268 2.329.734 3.304l-7.005-11.123c3.243-4.008 7.561-7.547 13.58-7.402 3.888.09 5.285 1.697 5.841 2.636.555.957.627 2.167.663 3.61-9.657 1.048-13.813 3.774-13.813 8.974Zm6.001-.524c0-2.167 1.971-3.81 7.848-4.55v4.893c-1.541 1.517-2.867 2.383-4.676 2.383-1.846 0-3.172-.812-3.172-2.726ZM28.302 12.82c-.251-2.185-1.2-5.887-4.766-7.819C18.52 2.275 11.891 3.63 7.626 7.403 3.239 11.267 1.322 15.257.533 19.554c-.609 3.268-.555 6.735-.501 10.382.018 1.03.035 2.076.035 3.142v1.01l.986.181c.77.145 1.738.38 2.848.632 2.777.65 6.45 1.517 10.177 1.824 5.303.433 11.18-.217 15.64-4.297 3.96-3.611 4.891-7.71 4.05-11.411-.771-3.377-3.01-6.32-5.465-8.198ZM2.897 20.005c.699-3.774 2.347-7.277 6.307-10.78C12.858 5.994 18.43 5.001 22.39 7.15c1.773.957 2.687 2.582 3.135 4.117a14.112 14.112 0 0 0-5.303-.993c-3.548 0-7.83 1.3-12.308 5.29-2.903 2.6-4.48 5.11-5.411 7.493.09-1.047.197-2.058.394-3.051Zm.108 11.627c.143-.614.268-1.227.376-1.823.054-.29.09-.56.143-.83.161-1.012.34-2.005.61-3.052.662-2.6 1.952-5.453 5.392-8.54 4.067-3.63 7.793-4.677 10.732-4.695 2.615 0 4.658.813 5.804 1.517.627 4.983-2.723 9.064-7.9 12.17-4.677 2.798-10.517 4.567-15.157 5.253Zm25.082-1.01c-3.727 3.412-8.797 4.08-13.831 3.683-2.419-.2-4.73-.614-6.808-1.084 3.977-.975 8.259-2.564 11.914-4.748 4.748-2.835 8.743-6.916 9.137-12.206 1.361 1.48 2.472 3.322 2.92 5.29.627 2.817.018 6.013-3.332 9.064Z"/></svg></svg>